<?xml version="1.0" encoding="utf-8"?>
<!-- Generator: Adobe Illustrator 23.0.0, SVG Export Plug-In . SVG Version: 6.00 Build 0)  -->
<svg version="1.1" id="Layer_1" xmlns="http://www.w3.org/2000/svg" xmlns:xlink="http://www.w3.org/1999/xlink" x="0px" y="0px"
	 viewBox="0 0 1038 506" style="enable-background:new 0 0 1038 506;" xml:space="preserve">
<style type="text/css">
	.st0{fill:#FCD39F;stroke:#BE9A54;stroke-miterlimit:10;}
	.st1{fill:#FCECD4;}
	.st2{fill:#BE9A54;}
	.st3{fill:#FCD39F;}
	.st4{fill:#FFE2B3;}
</style>
<path class="st0" d="M980.1,486.25c-9.41,1.93-12.13-6.48-17.55-11.57c-1.9,3.49-0.27,6.6,0.78,9.31
	c3.77,9.71,7.99,19.24,11.95,28.88c1.16,2.82,2.91,6.23-1.1,8.02c-3.88,1.72-5.65-1.01-7.42-4.28c-4.06-7.52-6.93-15.72-13.12-22.27
	c1.82,7.13,3.41,14.33,5.55,21.36c1.23,4.04,1.32,8.31,3.22,12.26c1.12,2.34,0.97,5.67-2.62,6.58c-3.11,0.79-5.44-1.02-6.27-3.76
	c-2.5-8.29-6.52-16.13-7.55-24.85c-0.33-2.79-2.25-4.6-3.65-8.22c-1.42,10.54,1.48,19.25,2.33,28.13c0.4,4.16,2.19,9.83-3.36,10.66
	c-5.2,0.78-5.11-5.3-5.98-8.99c-2.11-8.92-3.87-17.92-6.88-26.92c-0.98,6.29-1.99,12.58-2.92,18.89c-0.41,2.8,0,6.64-4.27,5.99
	c-3.8-0.58-5.18-4.02-4.66-7.58c0.89-6.11,1.44-12.11,1.2-18.39c-0.3-7.89-1.83-15.35-4.28-22.67c-2.62-7.81-3.93-15.96-3.87-23.92
	c0.2-25.15-8.86-47.4-20.93-68.46c-7.19-12.54-10.47-26.5-16.85-39.14c-6.59-13.05-7.73-26.83-9.31-40.85
	c-1.85-16.51-7.62-31.75-18.09-45.2c-3.04,3.11-2.61,7.63-3.54,11.51c-3.35,13.86-8.89,27.12-11.21,41.26
	c-1.53,9.31-1.11,18.56,0.97,27.65c2.64,11.55,4.58,23.07,4.2,35c-0.33,10.14,3.14,19.82,5.09,29.64c3.06,15.37,3.91,31,6.22,46.46
	c1.23,8.25,3.44,16.24,5.2,24.32c2.86,13.16,1.43,26.21,0.53,39.28c-1.12,16.18-3.01,32.3-4.3,48.47
	c-1.1,13.71-4.09,27.07-6.84,40.49c-2.68,13.09-4.81,26.11-1.91,39.59c1.24,5.76,0.92,11.99,0.47,17.95
	c-1.15,15.12,2.28,29.61,5.44,44.14c3.4,15.6,4.93,31.28,2.4,47.12c-2.4,15.05-4.06,30.36-8.13,44.98
	c-4.9,17.6-7.15,35.48-9.3,53.43c-1.29,10.78,1.15,21.52,1.76,32.29c0.07,1.27,0.82,2.42,2.24,3.13c8.24,4.12,9.6,10.49,3.98,17.67
	c-1.66,2.12-3.1,4.39-3.71,7.14c-0.46,2.06-0.95,4.23-2.54,5.78c-6.94,6.77-15.61,5.06-23.64,3.86c-6.4-0.96-10.2-5.67-10.51-12.72
	c-0.13-2.85-1.15-5.71-3.45-7.78c-3.6-3.25-4.43-7.69-3.01-11.72c1.66-4.71,1.08-8.86,0.11-13.46c-1.06-5.04,0.09-10.2,2.8-14.54
	c6.83-10.94,6.91-22.54,4.74-34.72c-3.01-16.93-6.61-33.7-11.3-50.25c-5.61-19.79-2.98-39.37,1.58-58.97
	c3.3-14.16,3.67-28.36-2.7-41.98c-4.35-9.3-5.38-19.26-5.89-29.3c-1.14-22.42-4.37-44.61-8.69-66.56
	c-3.12-15.86-7.69-31.44-10.42-47.43c-1.41-8.25,0.1-16.64-1.84-24.83c-0.54-2.25-0.7-4.53-2.68-6.6c-2.4,3.8-3.24,7.76-3.11,11.97
	c0.57,17.63-3.82,34.46-8,51.38c-3.75,15.17-6.32,30.58-8.5,46.07c-2.29,16.28-3.71,32.61-4.76,49c-0.51,7.94-4.52,15.06-7.13,22.5
	c-3.71,10.57-3.47,21.58-1.26,32.06c3.81,18.11,6.23,36.12,3.98,54.58c-1.34,10.98-5.59,21.22-8.05,31.91
	c-3.51,15.25-6.39,30.63-5.87,46.41c0.12,3.77,1.93,7.04,3.74,10.21c2.53,4.44,4.27,9.1,4.5,14.21c0.3,6.81-2.21,13.72,0.94,20.46
	c0.65,1.4-9.78,26.14-11.01,27.17c-5.99,5.04-13.16,3.76-20.02,3.45c-5.82-0.26-12.48-3.5-13.07-12.84
	c-0.16-2.56-2.58-3.73-4.03-5.49c-5.03-6.12-3.1-13.78,4.27-16.43c1.56-0.56,2.33-1.38,2.27-2.86c-0.5-11.64,3.63-23.02,2.07-34.67
	c-2.15-16.04-3.99-32.09-8.18-47.86c-5.15-19.38-8.09-39.3-10.02-59.24c-1.51-15.68,2-31.14,5.12-46.47
	c2.82-13.88,4.72-27.7,3.24-41.99c-0.64-6.19,1.46-12.62,1.8-18.96c0.87-16.39-2.64-32.26-6.36-48.07
	c-2.36-10.01-3.14-20.2-3.94-30.41c-1.42-18.11-2.87-36.21-4.42-54.31c-0.9-10.53,0.07-20.98,2.59-31.1
	c4.69-18.83,5.66-38.15,8.69-57.19c1.82-11.42,4.14-22.76,6.16-34.16c1.66-9.35-0.46-18.96,1.92-28.29
	c1.38-5.42,2.62-10.9,3.57-16.41c2.35-13.67-0.01-26.82-4.43-39.8c-4.16-12.24-7.43-24.74-10.47-37.58
	c-4.68,12.63-13.9,22.92-15.91,37.05c-1.57,11.03-3.39,21.99-4.19,33.14c-0.45,6.31-4.69,11.37-7.07,17.05
	c-4.73,11.32-7.46,23.42-13.44,34.24c-4.02,7.26-8.35,14.39-11.79,21.92c-8.23,18.04-13.34,36.91-13.08,56.93
	c0.08,6.27-1.23,12.19-3.07,18.17c-4.01,13.02-6.41,26.29-3.96,39.99c0.17,0.94,0.28,1.97,0.11,2.89c-0.59,3.1-0.19,7.33-4.72,7.4
	c-4.38,0.07-3.06-4.02-3.7-6.62c-1.66-6.71-2.23-13.56-3.52-20.62c-0.99,4.3-1.99,8.61-2.97,12.91c-1.58,6.96-3.18,13.92-4.69,20.89
	c-0.57,2.65-1.38,5.08-4.72,4.53c-3.06-0.5-3.71-2.81-3.73-5.65c-0.08-8.56,3.27-16.66,3.28-25.19c0-2.27,0-4.54-0.44-6.91
	c-4.59,7.57-5.08,16.53-8.51,24.45c-1.23,2.83-2.25,5.77-3.65,8.51c-1.25,2.46-3.35,3.96-6.21,2.66c-2.45-1.11-3.15-3.28-2.46-5.85
	c2.01-7.45,3.53-15.03,6.22-22.3c1.43-3.88,2.33-7.95,2.93-12.18c-4.23,3.51-5.85,8.57-8.27,13.11c-1.9,3.58-3.48,7.32-5.33,10.93
	c-1.45,2.82-3.97,3.87-6.83,2.7c-3.28-1.34-2.15-4.34-1.32-6.5c3.8-9.9,7.7-19.77,11.94-29.49c1.4-3.2,1.67-6.21,1.18-9.93
	c-2.93,1.27-3.86,3.99-5.42,6c-1.61,2.07-3.65,3.37-5.81,4.64c-1.67,0.98-3.4,1.04-4.85-0.22c-1.51-1.31-1.6-3.14-0.6-4.77
	c7.87-12.83,12.7-28.14,28.81-34.17c3.46-1.29,5.9-4.71,6.52-8.47c3.17-19.12,10.25-37.22,14.45-56.07
	c2.32-10.41,3.42-21.03,3.99-31.56c0.9-16.75,6.15-31.91,15.3-45.43c8-11.82,13.09-24.36,14.9-38.33c1.3-9.98,5.08-19.28,7.48-28.96
	c1.98-7.99,0.01-15.75-0.74-23.6c-1.44-15.06-1.08-30.18,6.91-43.34c9.37-15.43,23.67-24.67,41.98-26.31
	c5.69-0.51,10.9-1.61,16.03-4.09c7.3-3.53,15.13-6.04,22.18-9.96c13.81-7.68,16.82-13.27,13.85-26.96
	c-0.73-3.37-1.01-6.9-1.03-10.36c-0.06-7.73-7.26-11.56-9.56-18.06c-2.22-6.28-2.83-12.71-2.61-19.28c0.04-1.26,0.7-2.53,1.87-2.67
	c5.71-0.68,4.77-5.09,5.09-8.77c0.58-6.71,0.98-13.37,3.36-19.86c6.02-16.36,21.12-24.07,36.91-22.91
	c24.23,1.78,32.49,21.31,33.93,40.5c0.19,2.51,0.16,5.03,0.21,7.55c0.04,1.75,0.59,3.16,2.6,3.1c3.9-0.11,4.75,2.82,4.44,5.42
	c-1.11,9.25-0.95,19.05-9.05,25.9c-2.81,2.38-2.98,5.9-3.1,9.04c-0.28,7.31-3.8,14.26-2.26,21.72c1.72,8.34,8.34,12.03,14.95,15.74
	c15.18,8.53,31.85,12.47,48.66,16.23c21.21,4.74,37.41,24.94,37.93,46.76c0.26,10.82,0.69,21.63-1.04,32.44
	c-0.95,5.92,0.29,11.85,2.29,17.64c3.72,10.77,6.37,21.89,7.74,33.17c0.97,8.02,4.2,14.86,8.57,21.17
	c12.06,17.41,19.08,36.2,19.94,57.66c0.77,19.16,6.16,37.64,11.65,55.99c2.43,8.12,4.03,16.5,6.1,24.73
	c1.27,5.04,3.66,9.03,8.85,11.34c10.87,4.84,17.03,14.1,21.73,24.55c1.42,3.16,2.8,6.39,6.03,8.24
	C980.1,482.37,980.1,484.31,980.1,486.25z"/>
<path class="st0" d="M-49.23,474.62c6.35-5.98,10.93-13.36,16-20.36c3.92-5.42,8.44-10.42,14.71-12.75
	c9.72-3.61,14.79-10.05,17.61-20.1c5.68-20.23,12.63-40.09,16.01-60.93c1.27-7.82,0.88-15.78,2.62-23.59
	c3.43-15.37,8.21-29.94,18.86-42.12c9.16-10.49,12.5-23.32,12.94-36.95c0.15-4.53,0.95-8.73,2.64-12.95
	c3.49-8.73,2.84-17.97,1.76-26.97c-2.01-16.76-1.24-32.95,8.37-47.46c9.71-14.67,22.44-25.81,41.11-24.57
	c17.53,1.16,30.3-7.6,42.77-17.32c8.4-6.55,6.27-16.45,5.34-25.45c-0.67-6.51-2.05-12.94-3.05-19.42c-0.21-1.33,0.03-3.04-1.62-3.37
	c-6.53-1.32-6.37-6.93-7.59-11.62c-0.63-2.42-0.67-5.01-1.44-7.37c-1.41-4.33-0.85-7.69,3.81-9.38c2.78-1.01,2.3-3.26,2.27-5.31
	c-0.11-7.98,0.9-15.86,3.13-23.47c2.36-8.02,6.77-14.76,15.06-17.92c11.42-4.35,23.34-4.82,34.65-0.9
	c11.5,3.99,17.14,13.74,18.9,25.55c0.74,4.95,0.91,10,1.22,15.01c0.19,3.14-1.03,6.81,4.36,6.94c2.01,0.05,2.04,2.53,2.03,4.26
	c-0.02,6.44-1.41,12.67-3.08,18.83c-0.51,1.86-1.34,3.85-3.4,4.44c-3.62,1.03-4.65,3.69-4.99,6.97c-0.99,9.59-3.59,18.96-3.15,28.77
	c0.28,6.13,2.4,11,7.14,14.51c8.68,6.42,17.69,12.34,28.11,15.74c2.11,0.69,4,0.82,6.18,0.57c25.34-2.87,45.05,11.59,54.3,37.43
	c3.88,10.84,3.52,21.83,2.51,33.07c-0.84,9.35-1.65,18.83,1.92,28.07c3.45,8.93,2.9,18.64,4.51,27.95c1.29,7.46,4.3,14.03,9.1,19.68
	c12.96,15.25,19.56,32.91,21.55,52.7c2,19.85,6.17,39.29,12.66,58.22c3,8.75,5.43,17.7,7.82,26.63c1.18,4.4,3.97,6.87,7.88,8.54
	c10.53,4.48,19.31,10.84,25.05,21.18c2.5,4.49,6.17,8.38,9.62,12.28c1.92,2.17,2.92,4.44,1.29,6.74c-1.94,2.75-4.91,1.94-7.34,0.56
	c-4.82-2.76-8.07-7.07-10.86-11.78c-0.98-1.65-2.28-3.77-4.44-2.82c-2.42,1.06-0.85,3.29-0.51,5.08c1.4,7.49,4.21,14.38,8.37,20.79
	c3.69,5.68,6.71,11.74,8.93,18.18c0.96,2.78,0.42,5.07-2.29,6.37c-2.58,1.25-4.74-0.07-5.9-2.23c-2.81-5.22-6.97-9.61-8.91-15.37
	c-1.55-4.58-4.55-8.38-7.91-12.29c-1.22,2.31-0.53,3.92,0.23,5.93c3.53,9.32,6.77,18.75,9.98,28.18c0.48,1.41,0.29,3.07,0.35,4.61
	c0.08,1.88-0.41,3.54-2.42,4.14c-2,0.6-3.62,0.14-5.1-1.63c-3.47-4.14-4.57-9.27-6.34-14.12c-2.65-7.26-5.25-14.55-8.55-21.67
	c-1.59,4-0.85,7.88-0.12,11.66c1.31,6.81,2.89,13.58,4.45,20.35c0.72,3.13,0.61,6.17-2.84,7.19c-3.67,1.08-5.13-1.98-5.94-4.79
	c-2.77-9.65-5.36-19.35-7.98-29.05c-0.35-1.28-0.3-2.69-2.18-4.12c-0.49,6.8-0.88,13.16-1.43,19.5c-0.24,2.74,0.4,6.37-3.94,6.49
	c-4.28,0.11-4.18-3.27-4.22-6.19c-0.26-18.44-2.98-36.45-8.24-54.16c-1.69-5.67-2.3-11.76-2.71-17.7
	c-1.55-22.46-11.42-41.94-22.1-60.96c-9.41-16.76-14.91-35.1-22.74-52.47c-0.7-1.55-1.22-3.41-1.07-5.07
	c1.5-17.19-7.09-31.27-14.02-45.84c-2.15-4.53-4.67-8.88-7.51-14.23c-5.56,23.96-16.12,46.62-11.66,70.94
	c2.85,15.56,3.24,30.99,4.43,46.54c0.71,9.28,4.68,18.27,6.38,27.54c2.01,10.99,3.47,22.11,4.59,33.23
	c1.26,12.49,4.31,24.67,5.41,37.21c1.12,12.8,0.99,25.55,0.48,38.29c-0.47,11.76-2.85,23.48-2.79,35.22
	c0.08,17.92-3.54,34.91-9.55,51.59c-2.39,6.65-3.16,13.42-1.49,20.5c2.02,8.54,1.85,17.35,1.33,26.02
	c-0.8,13.27,1.04,26.22,3.66,39.11c3.86,18.98,3.66,37.96,0.5,56.99c-4.46,26.85-9.03,53.68-13.14,80.57
	c-1.29,8.41-0.78,16.99,1.28,25.38c1.17,4.76,1.45,9.79,0.08,14.39c-2.96,9.95,0.61,17.49,7.91,23.64
	c4.69,3.95,7.43,8.67,8.47,14.59c1.16,6.6-2.81,12.83-9.41,13.51c-6.93,0.71-13.52,5.38-20.86,1.91c-0.48-0.23-1.42,0.44-2.12,0.76
	c-7.11,3.24-10.13,2.68-14.89-3.33c-4.56-5.76-8.46-11.7-3.58-19.38c0.96-1.51,0.96-3.68,0.42-5.66
	c-2.99-10.88-2.47-22.25-4.46-33.27c-0.41-2.27-0.85-4.73,0.32-6.85c8.96-16.14,7.09-33.2,4.56-50.38
	c-2.31-15.67-7.79-30.55-11.16-45.92c-2.87-13.1-1.86-26.58,0.31-39.82c1.44-8.75,3.64-17.38,4.87-26.16
	c0.92-6.54,0.07-13.44-2.18-19.41c-5.4-14.32-6.08-29.14-7.91-44.04c-2.32-18.88-5.38-37.76-9.11-56.5
	c-4.93-24.71-12.79-49.08-10.32-74.83c0.26-2.69,0.43-5.39,0.83-8.06c0.41-2.72-0.02-4.62-3.3-4.75c-2.82-0.11-4.57,0.96-4.39,3.98
	c0.15,2.5,0.44,5.01,0.92,7.46c3.19,16.45-1.5,32.17-4.1,48.14c-3.26,19.99-9.03,39.43-11.44,59.66
	c-1.71,14.36-4.45,28.5-4.53,43.11c-0.04,7.81-4.1,15.23-6.5,22.78c-4.33,13.59-2.36,27.05,0.47,40.62
	c4.84,23.31,4.37,46.31-3.79,69.08c-6.71,18.73-9.06,38.22-7.36,58.13c0.23,2.76,0.81,5.46,2.27,7.71
	c4.98,7.66,5.64,15.83,3.44,24.44c-2.18,8.57,0.69,17.91-4.07,26.12c-0.83,1.44,0.73,2.84,1.37,4.23
	c3.96,8.47-0.91,21.18-9.47,24.62c-1.21,0.49-2.83,0.84-3.97,0.44c-9.37-3.25-19.46-2.16-28.89-4.92
	c-9.13-2.67-11.41-14.25-4.38-23.19c3.68-4.68,8.36-8.51,11.13-13.98c1.92-3.79,3.06-7.39,1.62-11.61
	c-1.91-5.63-1.74-11.28-0.45-17.13c2.98-13.5,0.7-26.96-1.38-40.32c-3.89-24.98-8.98-49.81-11.95-74.89
	c-2.04-17.23-1.73-34.8,2.32-51.97c2.41-10.22,3.53-20.55,2.94-31.05c-0.68-12.03,0.6-23.96,1.95-35.89
	c0.76-6.74-0.91-13.25-3.34-19.24c-5.39-13.23-8.24-27.13-8.53-41.07c-0.45-21.48-3.42-42.79-3.22-64.32
	c0.14-14.66,3.3-28.75,5.34-43.05c2.21-15.46,3.08-31.12,6.66-46.39c1.67-7.14,3.04-14.35,4.79-21.48
	c2.52-10.28,0.16-20.84,2.03-31.18c1.44-7.96,3.15-15.87,3.66-24.01c1.07-17.38-3.87-33.62-8.71-49.93c-1.25-4.23-2.27-8.53-3.44-13
	c-2.35,1.65-3.71,3.91-4.89,6.56c-5.47,12.3-11.84,24.22-15.62,37.23c-0.32,1.11-1.02,2.27-0.88,3.32
	c2.26,16.67-7.6,29.9-12.54,44.51c-4.48,13.24-12.19,24.92-18.31,37.35c-8.78,17.84-15.47,36.46-16.07,56.89
	c-0.29,9.98-3.85,19.66-7.09,29.1c-2.43,7.08-1.6,14.14-2.02,21.22c-0.31,5.2,0.35,10.45-1.05,15.6c-0.72,2.62-2.32,4.31-4.88,3.97
	c-2.39-0.31-3.12-2.5-3.22-4.85c-0.32-7.12,0.62-14.33-1.55-21.8c-2.37,2.09-2.59,4.78-3.05,7.24c-1.57,8.56-4.38,16.78-6.84,25.09
	c-0.85,2.88-1.85,6.9-5.78,5.66c-3.48-1.09-4.1-4.81-3.03-8.37c2.22-7.38,2.61-15.18,5.45-22.45c0.92-2.35,0.42-5.26,0.66-9.51
	c-4.45,3.93-5.13,8.05-6.53,11.75c-2.71,7.2-5.3,14.45-8.13,21.61c-0.61,1.55-1.84,3.01-3.14,4.1c-3.03,2.56-6.07,1.28-6.56-2.62
	c-0.43-3.38,0.79-6.53,1.77-9.63c2.71-8.63,5.65-17.18,8.58-26.01c-2.22-0.49-2.99,0.9-3.83,2.38c-3.22,5.7-6.5,11.38-9.78,17.05
	c-0.97,1.67-1.91,3.37-3.08,4.89c-1.51,1.96-3.46,3.3-6.02,1.88c-2.65-1.47-3.08-3.77-1.97-6.48c2.65-6.44,5.32-12.88,9.31-18.64
	c4.5-6.5,6.67-13.88,8.43-21.43c0.32-1.39,0.94-3.38-0.65-4.26c-1.71-0.94-2.94,0.89-3.78,1.94c-1.81,2.24-3.14,4.85-4.78,7.22
	c-4.83,6.99-10.82,8.43-16.24,3.98C-49.23,476.17-49.23,475.4-49.23,474.62z"/>
<path class="st1" d="M-300.2,803.32c-0.03-0.02-0.06-0.03-0.09-0.05C-300.26,803.29-300.23,803.3-300.2,803.32
	C-300.2,803.32-300.2,803.32-300.2,803.32z"/>
<g>
	<path class="st2" d="M816.45,1264.91c3.22-7.54,8.27-11.17,15.76-10.35c7.39,0.81,10.41,5.95,11.45,13.15
		c4.59-5.25,9.92-7.4,16.19-4.52c6.36,2.93,7.66,8.75,7.37,15.21c9.33-5.9,19.54-0.99,20.85,9.81c0.25,2.06,0.3,4.13,0.06,6.19
		c-0.15,1.27,0.15,2.11,1.55,1.28c6.11-3.61,15.16,1.63,17.01,8.94c2.02,7.96,3.4,16.14,2.71,24.29c-0.63,7.5-0.38,14.71,0.91,22.14
		c2.73,15.68,0.9,31.18-3.34,46.45c-3.92,14.11-8.87,27.96-11.45,42.41c-2.2,12.3-3.85,24.7-5.83,37.04
		c-1.64,10.21-3.37,20.42-4.23,30.73c-0.82,9.95-0.98,19.96-2.1,29.87c-1.55,13.82-5.71,26.81-15.97,36.84
		c-12.32,12.06-27.05,14.18-42.97,8.87c-14.51-4.84-21.84-16.17-25.75-30.17c-2.32-8.29-2.44-16.87-2.88-25.4
		c-0.86-16.76,0.96-33.44,1.47-50.15c0.5-16.08-0.44-31.99-4.48-47.65c-2.72-10.55-8.33-19.62-14-28.66
		c-9.74-15.52-14.13-32.24-12.74-50.59c0.75-9.87,2.6-19.38,6.11-28.62c2.31-6.07,4.17-12.28,3.08-18.94
		c-0.77-4.72-2.39-9.22-3.48-13.85c-2.97-12.64-1.45-24.48,6.54-35.07c3.01-4,7.06-6.45,12.04-6.89c7.68-0.69,14.96,0.43,20.57,6.38
		C813.67,1256.55,815.06,1260.3,816.45,1264.91z M797.33,1517.58c-0.1,5.96,0.42,11.89,0.81,17.81c0.53,7.97,1.56,15.83,4.49,23.45
		c5.71,14.89,19.5,24.93,35.34,25.12c17.15,0.21,28.86-8.28,36.61-22.99c5.63-10.68,7.3-22.34,7.7-34.18
		c0.36-10.62,1.23-21.18,2.69-31.69c1.23-8.81,2.65-17.59,4.03-26.37c1.65-10.48,2.83-21.02,5-31.42
		c2.85-13.66,7.36-26.86,11.06-40.29c4.42-15.99,6.06-32.16,2.83-48.56c-1-5.06-1.59-9.99-0.79-15.15c0.6-3.87,1.13-7.86,0.25-11.81
		c-0.72-3.26-0.82-6.59-1.19-9.89c-0.41-3.68-1.13-7.28-3.46-10.36c-4.71-6.22-12.33-6.33-15.47-0.09c-2.11,4.2-2.5,8.62-0.57,13.04
		c0.94,2.14,1.87,4.28,2.39,6.56c0.31,1.37,0.86,3.01-0.61,3.98c-1.52,1-3.2,0.88-4.82-0.16c-3.33-2.15-3.58-5.38-3.23-8.82
		c0.53-5.13,1.96-10.03,3.87-14.82c2.2-5.51,3.01-11.11,0.58-16.8c-1.75-4.11-5.45-6.28-10.41-6.16c-3.97,0.09-6.58,2.24-8.18,6.62
		c-0.6,1.64-0.84,3.3-0.82,5.03c0.05,4.05,0.11,8.1,0.12,12.15c0,2.74-0.6,5.36-1.82,7.81c-0.61,1.22-1.3,2.56-2.93,2.36
		c-1.72-0.21-2.53-1.42-2.86-3.12c-1.3-6.57,0.35-12.62,3-18.55c2.16-4.83,4.56-9.62,4.28-15.16c-0.3-5.83-4.03-10.3-9.26-11
		c-5.39-0.72-9.48,2.19-11.49,7.95c-1.81,5.18-1.56,10.4-0.89,15.72c0.63,5.01,1.02,10.04-1.4,14.81c-0.66,1.29-1.67,1.91-2.98,1.92
		c-1.39,0.01-1.9-1.1-2.3-2.28c-1.15-3.45-0.96-6.9-0.21-10.38c1.28-5.98,4.15-11.5,4.89-17.63c0.59-4.87,0.34-9.64-2.5-13.73
		c-3.72-5.36-12.27-5.4-17.38-0.39c-4.58,4.48-4.21,10.07-3.43,15.66c1.13,8.09,2.94,16.12,2.39,24.37
		c-0.16,2.47-1.22,4.57-3.69,5.47c-1.89,0.69-3.98,1.05-5.61-0.56c-1.92-1.9-2.06-4.31-1.27-6.77c0.96-2.99,2.13-5.93,2.98-8.95
		c2.52-8.95,3.85-17.9,0.49-27.02c-2.67-7.25-7.49-11.52-15.19-12.84c-7.64-1.31-14.1,0.26-19.06,6.51
		c-2.03,2.56-3.44,5.47-4.56,8.52c-3.06,8.38-3.13,16.82-0.88,25.44c1.45,5.55,3.82,10.93,3.6,16.87
		c-0.16,4.36-0.82,8.62-2.41,12.66c-5.65,14.37-8,29.16-7.07,44.63c0.87,14.43,6.73,26.85,14.06,38.85
		c4.73,7.74,9.59,15.41,11.97,24.31c1.55,5.82,2.86,11.69,3.7,17.66c1.31,9.28,1.95,18.62,1.62,27.97
		C798.87,1487.76,798.04,1502.66,797.33,1517.58z M817.3,1280.84c-0.4,0.83-0.64,1.12-0.68,1.43c-0.68,5.21-2.26,10.16-4.22,15.01
		c-0.4,0.98-0.61,2.07-0.72,3.13c-0.14,1.38,0.02,2.7,1.63,3.32c1.73,0.67,3.25,0.32,4.42-1.01c1.11-1.27,1.3-2.92,1.3-4.57
		C819.04,1292.51,817.93,1287,817.3,1280.84z M863.05,1290.5c-0.46,1.04-0.93,2.07-1.37,3.12c-1.91,4.55-2.7,9.27-1.99,14.19
		c0.12,0.81,0.21,1.82,1.1,1.96c0.93,0.14,1.22-0.85,1.5-1.59c0.23-0.58,0.43-1.18,0.62-1.78
		C864.65,1301.19,863.68,1295.91,863.05,1290.5z M841.19,1284.47c-2.43,5.42-3.68,10.33-2.88,15.56c0.12,0.79,0.11,2.12,1.15,2.23
		c1.2,0.12,1.44-1.21,1.76-2.08C843.01,1295.14,842.11,1290.09,841.19,1284.47z M883.39,1310.81c-0.7,2.34-1.18,4.64-1.13,7.04
		c0.03,1.57,0.27,3.05,1.48,4.17c0.85,0.78,1.81,1.95,2.98,1.31c1.24-0.68,0.61-2.14,0.27-3.16
		C885.95,1317.01,884.3,1314.07,883.39,1310.81z"/>
	<path class="st2" d="M625.64,1297.08c-0.38-3.89-0.6-7.17,0.09-10.45c2-9.58,11.33-13.65,19.74-8.57c0.21,0.13,0.35,0.45,0.8,0.14
		c-0.15-6.31,0.99-12.28,7.7-15.07c6.11-2.55,11.4-0.9,15.76,4.73c1.15-7.34,4.25-12.55,11.86-13.3c7.42-0.73,12.28,2.97,15.35,9.98
		c0.89-2.15,1.62-3.94,2.39-5.72c2.18-5.07,5.78-8.56,11.13-10.21c5.81-1.79,11.58-2.41,17.44-0.1c4.33,1.7,7.31,4.89,9.57,8.72
		c6.99,11.81,7.31,24.3,2.88,36.95c-3.62,10.33-2.02,20.07,1.64,29.98c6.45,17.45,7.47,35.38,3.32,53.5
		c-1.92,8.39-6.16,15.87-10.44,23.28c-4.26,7.38-9.36,14.33-12.14,22.5c-2.15,6.31-3.58,12.8-4.71,19.37
		c-2.96,17.35-1.93,34.76-0.9,52.17c1.02,17.18,1.53,34.37-0.91,51.47c-1.65,11.59-5.94,22.11-15.09,29.91
		c-9.95,8.48-21.72,10.96-34.37,8.81c-14.63-2.48-24.02-11.77-30.27-24.68c-4.99-10.31-6.84-21.34-7.13-32.67
		c-0.47-18.13-3.04-36.01-5.99-53.86c-1.77-10.72-3.2-21.5-5.02-32.21c-1.84-10.83-5.05-21.32-8.25-31.82
		c-1.4-4.6-2.62-9.27-3.9-13.91c-3.65-13.21-4.94-26.57-3.67-40.19c0.23-2.42,0.23-4.94,0.96-7.21c2.19-6.84,1.27-13.65,0.48-20.53
		c-0.27-2.37-0.14-4.88,0.29-7.24c0.91-5.11,1.04-10.32,2.3-15.39c1.43-5.8,7.14-10.76,12.86-10.87
		C621.63,1294.56,623.61,1295.23,625.64,1297.08z M604.02,1365.59c0.1,3.23,0.03,6.47,0.32,9.7c1.09,11.9,4.41,23.28,7.84,34.64
		c3.48,11.54,6.88,23.1,8.78,35.03c1.92,12.06,3.54,24.18,5.5,36.23c2.3,14.21,4.27,28.45,4.64,42.86
		c0.25,9.84,1.31,19.55,4.44,28.94c3.15,9.43,8.23,17.64,16.22,23.66c17.88,13.45,48.39,8.9,58.98-17.32
		c3.99-9.87,4.49-20.31,5.09-30.7c0.76-13.31-0.23-26.61-0.99-39.9c-0.87-15.2-1.04-30.33,1.1-45.47
		c2.11-14.89,7.4-28.38,15.68-40.9c4.2-6.36,8-13.07,10.27-20.42c6.04-19.5,5-38.8-1.94-57.92c-2.67-7.36-5.19-14.84-3.3-22.88
		c0.93-3.94,1.93-7.86,3.03-11.75c2.94-10.46,1.81-20.5-3.27-30.01c-3.72-6.96-9.4-11.12-17.67-10.38
		c-5.31,0.47-10.66,1.33-14.37,5.72c-5.06,5.99-6.92,13.22-6.5,20.84c0.39,7.01,2.09,13.86,4.84,20.37
		c0.68,1.62,0.95,3.29,1.04,4.98c0.18,3.3-2.27,5.42-5.51,4.94c-3.72-0.56-5.32-2.49-5.48-6.72c-0.23-5.78,0.6-11.48,1.46-17.18
		c0.78-5.14,2.15-10.25,1.02-15.51c-1.35-6.27-6.64-10.4-12.82-10.04c-6.02,0.34-9.52,4.19-10.42,11
		c-0.76,5.72,0.45,11.09,2.37,16.36c1.95,5.36,3.76,10.71,2.78,16.54c-0.3,1.81-0.75,3.78-2.89,4.06c-2.39,0.31-2.9-1.99-3.87-3.53
		c-0.18-0.29-0.18-0.69-0.26-1.04c-0.79-3.74-0.82-7.49-0.27-11.26c0.87-5.93,1.02-11.81-1.2-17.55c-1.58-4.1-4.96-6.87-8.98-6.99
		c-4.65-0.14-8.09,1.87-10.22,6.04c-1.51,2.95-1.51,6.08-0.89,9.22c1.02,5.16,3.52,9.79,5.43,14.63c1.85,4.7,2.44,9.57,1.65,14.56
		c-0.26,1.65-0.88,3.27-2.83,3.49c-1.88,0.21-2.63-1.29-3.25-2.72c-1.05-2.41-1.71-4.92-1.68-7.58c0.05-4.5,0.19-9,0.08-13.5
		c-0.12-5.02-3.28-9.3-7.11-10.03c-5.01-0.95-10,1.24-11.91,5.35c-2.23,4.79-2.34,9.76-0.65,14.72c1.89,5.53,4.1,10.95,4.73,16.82
		c0.31,2.9,0.54,5.77-1.58,8.19c-1.71,1.95-4.61,2.81-6.24,1.54c-1.97-1.54-1.02-3.47-0.24-5.3c2.44-5.78,4.54-11.56,1.56-17.88
		c-1.89-4.01-5.79-5.91-9.97-4.54c-5.2,1.7-7.78,5.64-8.73,10.67c-0.79,4.22-0.85,8.57-1.62,12.79c-0.64,3.5-0.5,6.94-0.26,10.42
		c0.25,3.75,1.94,7.48,0.97,11.21C604.95,1349.84,603.86,1357.62,604.02,1365.59z M696.79,1281.78c-0.23,0.01-0.45,0.01-0.68,0.02
		c-0.54,4.59-1.12,9.18-1.58,13.79c-0.16,1.59-0.23,3.22,0.21,4.81c0.71,2.63,2.93,4.2,5.11,3.56c1.88-0.55,2.67-2.48,1.73-5.2
		C699.65,1293.19,697.61,1287.67,696.79,1281.78z M650.19,1290.11c-0.17,1.82-0.35,3.14-0.41,4.46c-0.24,4.67-0.45,9.34,1.53,13.77
		c0.28,0.63,0.44,1.55,1.35,1.39c0.79-0.14,0.97-0.96,1.1-1.69C654.89,1301.75,653.24,1296.04,650.19,1290.11z M672.43,1284.3
		c-1.04,5.55-1.89,10.7-0.1,15.84c0.3,0.88,0.48,2.22,1.71,2.11c1.04-0.09,0.94-1.4,1.22-2.2c0.23-0.65,0.15-1.42,0.19-2.14
		C675.7,1293.31,674.3,1289.07,672.43,1284.3z M630.07,1310.81c-0.85,3.02-2.22,5.79-3.26,8.68c-0.46,1.27-1.56,3.05,0.08,3.75
		c1.63,0.7,2.85-0.99,3.76-2.35c0.24-0.35,0.4-0.81,0.44-1.24C631.42,1316.64,631.08,1313.71,630.07,1310.81z"/>
	<path class="st3" d="M797.33,1517.58c0.7-14.91,1.54-29.82,2.07-44.74c0.33-9.35-0.31-18.69-1.62-27.97
		c-0.84-5.97-2.15-11.84-3.7-17.66c-2.38-8.91-7.24-16.58-11.97-24.31c-7.33-12-13.19-24.42-14.06-38.85
		c-0.94-15.47,1.41-30.27,7.07-44.63c1.59-4.04,2.25-8.3,2.41-12.66c0.22-5.94-2.15-11.32-3.6-16.87
		c-2.25-8.62-2.18-17.07,0.88-25.44c1.11-3.04,2.53-5.95,4.56-8.52c4.96-6.25,11.42-7.82,19.06-6.51c7.7,1.32,12.52,5.6,15.19,12.84
		c3.36,9.12,2.02,18.07-0.49,27.02c-0.85,3.02-2.02,5.95-2.98,8.95c-0.79,2.46-0.66,4.87,1.27,6.77c1.63,1.61,3.72,1.25,5.61,0.56
		c2.46-0.9,3.52-3,3.69-5.47c0.55-8.25-1.25-16.27-2.39-24.37c-0.78-5.59-1.16-11.18,3.43-15.66c5.11-5,13.66-4.97,17.38,0.39
		c2.84,4.09,3.09,8.87,2.5,13.73c-0.74,6.14-3.61,11.66-4.89,17.63c-0.74,3.48-0.94,6.94,0.21,10.38c0.39,1.18,0.91,2.29,2.3,2.28
		c1.3-0.01,2.32-0.62,2.98-1.92c2.42-4.77,2.03-9.8,1.4-14.81c-0.67-5.32-0.92-10.54,0.89-15.72c2.02-5.76,6.1-8.68,11.49-7.95
		c5.23,0.7,8.96,5.17,9.26,11c0.28,5.55-2.11,10.33-4.28,15.16c-2.65,5.93-4.3,11.98-3,18.55c0.34,1.7,1.15,2.91,2.86,3.12
		c1.62,0.2,2.32-1.13,2.93-2.36c1.22-2.46,1.82-5.08,1.82-7.81c-0.01-4.05-0.07-8.1-0.12-12.15c-0.02-1.73,0.22-3.39,0.82-5.03
		c1.6-4.37,4.21-6.52,8.18-6.62c4.96-0.12,8.66,2.06,10.41,6.16c2.43,5.69,1.62,11.29-0.58,16.8c-1.91,4.79-3.34,9.69-3.87,14.82
		c-0.36,3.44-0.1,6.68,3.23,8.82c1.62,1.04,3.3,1.16,4.82,0.16c1.47-0.96,0.92-2.6,0.61-3.98c-0.52-2.28-1.45-4.42-2.39-6.56
		c-1.93-4.42-1.54-8.84,0.57-13.04c3.14-6.24,10.75-6.13,15.47,0.09c2.33,3.08,3.05,6.69,3.46,10.36c0.37,3.3,0.47,6.63,1.19,9.89
		c0.87,3.96,0.35,7.94-0.25,11.81c-0.81,5.17-0.21,10.09,0.79,15.15c3.23,16.4,1.59,32.57-2.83,48.56
		c-3.71,13.42-8.21,26.63-11.06,40.29c-2.17,10.39-3.36,20.94-5,31.42c-1.38,8.78-2.8,17.56-4.03,26.37
		c-1.47,10.51-2.33,21.07-2.69,31.69c-0.4,11.84-2.07,23.49-7.7,34.18c-7.75,14.71-19.46,23.2-36.61,22.99
		c-15.85-0.19-29.63-10.23-35.34-25.12c-2.92-7.62-3.96-15.48-4.49-23.45C797.75,1529.47,797.23,1523.53,797.33,1517.58z"/>
	<path class="st3" d="M604.02,1365.59c-0.16-7.96,0.93-15.75,2.92-23.46c0.96-3.73-0.72-7.46-0.97-11.21
		c-0.23-3.48-0.38-6.92,0.26-10.42c0.77-4.22,0.83-8.58,1.62-12.79c0.94-5.03,3.53-8.96,8.73-10.67c4.18-1.37,8.08,0.53,9.97,4.54
		c2.97,6.33,0.88,12.1-1.56,17.88c-0.78,1.84-1.73,3.76,0.24,5.3c1.62,1.27,4.53,0.41,6.24-1.54c2.13-2.43,1.89-5.29,1.58-8.19
		c-0.63-5.88-2.85-11.3-4.73-16.82c-1.69-4.95-1.58-9.92,0.65-14.72c1.92-4.12,6.91-6.3,11.91-5.35c3.83,0.73,6.98,5.01,7.11,10.03
		c0.11,4.5-0.04,9-0.08,13.5c-0.03,2.66,0.63,5.17,1.68,7.58c0.62,1.43,1.37,2.93,3.25,2.72c1.96-0.22,2.57-1.83,2.83-3.49
		c0.79-4.99,0.2-9.86-1.65-14.56c-1.91-4.84-4.41-9.47-5.43-14.63c-0.62-3.14-0.62-6.26,0.89-9.22c2.13-4.17,5.57-6.18,10.22-6.04
		c4.02,0.12,7.39,2.89,8.98,6.99c2.22,5.75,2.07,11.62,1.2,17.55c-0.55,3.77-0.52,7.53,0.27,11.26c0.07,0.35,0.08,0.75,0.26,1.04
		c0.97,1.53,1.48,3.83,3.87,3.53c2.14-0.27,2.59-2.25,2.89-4.06c0.98-5.83-0.83-11.18-2.78-16.54c-1.92-5.27-3.13-10.64-2.37-16.36
		c0.9-6.81,4.4-10.66,10.42-11c6.18-0.35,11.47,3.77,12.82,10.04c1.13,5.26-0.24,10.37-1.02,15.51c-0.86,5.69-1.69,11.39-1.46,17.18
		c0.17,4.24,1.77,6.17,5.48,6.72c3.24,0.49,5.7-1.64,5.51-4.94c-0.09-1.69-0.36-3.36-1.04-4.98c-2.75-6.51-4.45-13.36-4.84-20.37
		c-0.42-7.63,1.43-14.85,6.5-20.84c3.71-4.39,9.06-5.25,14.37-5.72c8.27-0.74,13.95,3.42,17.67,10.38
		c5.09,9.51,6.21,19.56,3.27,30.01c-1.09,3.89-2.1,7.81-3.03,11.75c-1.89,8.04,0.63,15.52,3.3,22.88
		c6.94,19.12,7.98,38.42,1.94,57.92c-2.27,7.34-6.07,14.06-10.27,20.42c-8.27,12.52-13.57,26.01-15.68,40.9
		c-2.14,15.14-1.96,30.27-1.1,45.47c0.76,13.28,1.75,26.58,0.99,39.9c-0.59,10.39-1.1,20.83-5.09,30.7
		c-10.59,26.21-41.1,30.77-58.98,17.32c-7.99-6.01-13.08-14.23-16.22-23.66c-3.13-9.39-4.19-19.1-4.44-28.94
		c-0.37-14.41-2.34-28.65-4.64-42.86c-1.96-12.06-3.58-24.17-5.5-36.23c-1.89-11.93-5.29-23.5-8.78-35.03
		c-3.43-11.36-6.75-22.74-7.84-34.64C604.05,1372.05,604.12,1368.82,604.02,1365.59z"/>
</g>
<g>
	<path class="st3" d="M207.7,1472.44c1.67-2.63,1.76-5.71,1.91-8.59c0.4-7.69-0.12-15.36-1.12-23.03
		c-0.67-5.14-0.89-10.39-0.81-15.62c0.08-5.3-1.17-10.49-1.64-15.75c-0.29-3.28-0.84-6.54-1.33-9.8c-0.36-2.44-0.48-4.98-1.27-7.29
		c-1.81-5.32-1.73-10.91-2.67-16.34c-1.34-7.71-1.14-15.52-1.02-23.31c1.09-0.34,0.89-1.25,0.91-2.06
		c0.43-14.71,4.58-28.26,12.72-40.54c8.23-12.43,19.23-21.33,33.6-25.65c9.56-2.87,19.31-2.8,29.04-0.75
		c13.34,2.82,24.96,9.23,35.78,17.29c13.54,10.08,22.2,23.52,27.26,39.46c5.06,15.92,6.09,32.2,4.52,48.73
		c-2.05,21.61-8.22,41.93-19.07,60.77c-6.08,10.55-13.4,20.14-22.68,28.13c-5.28,4.55-10.77,8.88-15.07,14.43
		c-4.7,6.06-10.09,11.44-16.17,16.08c-9.01,6.88-18.97,11.21-30.57,8.92c-14.91-2.95-25.54-11.03-29.61-26.32
		c-1.47-5.52-1.27-11.2-1.68-16.82C208.67,1473.55,208.9,1472.63,207.7,1472.44z M243.72,1307.19c0.08,0.28,0.15,0.55,0.23,0.83
		c2.09-0.71,4.17-1.43,6.26-2.13c10.04-3.37,20.05-3.19,29.98,0.39c8.92,3.22,16.04,8.95,22.37,15.92
		c8.14,8.97,14.06,19.16,18.17,30.49c4.96,13.68,6.84,27.75,6.02,42.3c-0.75,13.25-3.63,25.97-8.98,38.03
		c-5.83,13.16-13.75,24.93-25.15,34.07c-0.65,0.53-2.35,1.05-1.61,2c0.69,0.9,1.72-0.51,2.4-1.05c8.13-6.51,14.59-14.48,19.82-23.42
		c5.86-10.03,9.89-20.77,12.4-32.13c3.56-16.16,3.45-32.27-0.19-48.35c-3.31-14.62-9.54-27.93-18.98-39.58
		c-4.97-6.13-10.68-11.69-17.6-15.61c-11.26-6.38-23.29-8.53-36-5.24C249.7,1304.52,246.48,1305.36,243.72,1307.19z M253.91,1446.13
		c4.37-1.22,8.83-1.86,13.21-2.82c13.1-2.88,21.96-10.81,26.17-23.58c2.88-8.74,2.03-17.54-0.56-26.22
		c-1.64-5.49-4.42-10.38-8.52-14.41c-6.64-6.54-14.63-10.67-23.6-13.12c-10.67-2.92-21.52-3.87-32.53-3.48
		c-0.64,0.02-1.56-0.05-1.45,0.88c0.09,0.79,0.86,0.41,1.43,0.39c11.5-0.38,22.89,0.47,33.93,3.93c7.26,2.27,14.1,5.47,19.71,10.75
		c7.06,6.64,10.72,14.87,11.77,24.53c1.69,15.69-4.45,28.88-18.59,36.49c-5.14,2.77-10.88,2.72-16.29,4.2
		C256.84,1444.15,255.21,1444.69,253.91,1446.13z M272.04,1309.02c-0.52,1.35,0.07,2.17,0.36,2.98c1.21,3.35,2.54,6.66,3.78,10
		c2.51,6.77,5.82,13.17,9.19,19.52c4.82,9.08,11.09,17.28,16.39,26.07c4.84,8.03,8.45,16.47,9,26.03c0.72,12.34-1.85,23.74-9,33.94
		c-2.62,3.75-5.51,7.26-9.35,9.86c-0.51,0.35-1.45,0.75-0.92,1.48c0.74,1.02,1.26-0.15,1.76-0.52c1.12-0.84,2.25-1.72,3.22-2.72
		c15.08-15.53,19.03-33.79,13.09-54.35c-2.36-8.16-6.96-15.22-11.7-22.14c-9.56-13.95-17.54-28.7-23.26-44.65
		C273.95,1312.75,273.79,1310.67,272.04,1309.02z M229.77,1441.22c2.94-4.65,3.91-12.34,0.87-17.15c-2.4-3.8-5.41-7.13-7.82-10.9
		c-2.09-3.27-1.55-4.15,2.26-4.68c11.51-1.62,19.04,9.9,19.63,17.4c0.36,4.51-1.25,8.47-3.89,12.05c-0.3,0.4-0.81,0.8-0.38,1.26
		c0.57,0.62,1.1,0,1.45-0.38c0.5-0.55,0.9-1.19,1.26-1.84c4.34-7.8,3.44-16.29-2.43-23.1c-4.59-5.32-10.25-7.74-17.29-6.33
		c-2.76,0.55-3.36,0.06-2.84-2.65c0.18-0.97,0.52-1.89,1.07-2.76c2.26-3.63,5.95-4.31,9.7-4.62c10.21-0.84,19.26,3.61,28.65,6.48
		c3.91,1.19,7.42,3.25,10.98,5.22c0.51,0.28,1.1,1.2,1.62,0.23c0.47-0.89-0.61-0.96-1.09-1.32c-0.2-0.15-0.44-0.23-0.66-0.36
		c-7.71-4.58-16.28-6.92-24.75-9.55c-5.49-1.71-11.05-2.47-16.71-1.76c-8.45,1.06-12.73,7.92-8.59,15.64
		c1.7,3.16,3.91,5.98,6.16,8.72c4.41,5.38,5.54,11.14,2.99,17.64C229.68,1439.21,228.97,1440.04,229.77,1441.22z M275.55,1390.53
		c-0.92-1.1-1.78-1.03-2.59-1.06c-10.04-0.33-19.73-2.51-29.12-5.95c-6.4-2.35-12.22-5.82-16.16-11.56
		c-7.42-10.81-9-22.76-6.16-35.39c0.64-2.85,1.68-5.62,2.67-8.88c-1.53,0.9-1.85,2.04-2.21,3.07c-2.6,7.47-3.83,15.09-2.6,23.01
		c1.32,8.46,4.23,16.21,10.28,22.45c5.19,5.35,11.92,8.06,18.84,10.25c6.5,2.05,13.22,3.24,19.98,3.94
		C270.69,1390.65,273,1391.56,275.55,1390.53z M223.91,1342.98c-0.21,1.07,0.27,1.34,0.7,1.55c7.29,3.64,14.89,6.14,23.15,5.49
		c4-0.32,7.4-2.13,9.87-5.53c3.82-5.26,3.2-10.73,0.96-16.28c-1.97-4.88-5.01-9.1-8.48-13.03c-0.43-0.49-0.87-1.45-1.47-0.96
		c-0.86,0.69,0.19,1.27,0.63,1.76c3.09,3.38,5.68,7.12,7.56,11.27c1.64,3.62,3.06,7.41,2.02,11.53c-2.08,8.22-8.53,10.81-16.24,10
		c-4.35-0.46-8.68-1.33-12.71-3.25C227.99,1344.62,226.01,1343.87,223.91,1342.98z M220.97,1460.99c-1.11,6.5,0.3,10.65,3.38,12.43
		c3.18,1.84,7.15,1.83,9.72-0.44c-3.68,0.32-7.24,1.52-10.07-1.36C221.26,1468.83,221.92,1464.99,220.97,1460.99z"/>
	<path class="st2" d="M207.7,1472.44c1.19,0.19,0.97,1.11,1.03,1.92c0.42,5.62,0.21,11.3,1.68,16.82
		c4.08,15.3,14.7,23.38,29.61,26.32c11.6,2.29,21.56-2.04,30.57-8.92c6.07-4.64,11.47-10.02,16.17-16.08
		c4.3-5.55,9.8-9.88,15.07-14.43c9.28-7.99,16.6-17.57,22.68-28.13c10.85-18.84,17.01-39.16,19.07-60.77
		c1.57-16.53,0.54-32.81-4.52-48.73c-5.06-15.94-13.73-29.37-27.26-39.46c-10.82-8.06-22.44-14.47-35.78-17.29
		c-9.73-2.05-19.47-2.13-29.04,0.75c-14.38,4.32-25.37,13.22-33.6,25.65c-8.14,12.29-12.29,25.83-12.72,40.54
		c-0.02,0.81,0.18,1.73-0.91,2.06c-1.38-0.78-0.74-2.15-0.94-3.27c0.63-2,0.38-4.07,0.52-6.11c1.8-13.86,6.54-26.56,14.93-37.8
		c7.05-9.44,15.93-16.57,26.88-21.04c0.76-0.31,1.49-0.71,2.24-1.07c1.64,0.1,3.23-0.02,4.5-1.25c5.54-0.95,11.07-1.91,16.73-1.64
		c1.15,0.12,2.34-0.08,3.45,0.4c0.5,0,1.01,0.01,1.51,0.01c0.66,0.01,1.32,0.01,1.98,0.02c7.98,1.28,15.65,3.57,22.89,7.2
		c17.05,8.55,31.56,19.82,40.44,37.27c7.85,15.44,10.92,31.89,11.12,49.08c0.24,20.58-3.78,40.32-11.49,59.29
		c-6.34,15.58-14.99,29.79-27.05,41.72c-4.9,4.84-10.64,8.76-15.33,13.82c-3.72,4.01-7.13,8.3-10.9,12.25
		c-7.67,8.04-16.31,14.67-27.39,17.32c-18.43,4.4-43.34-7.14-46.04-32.04c-0.14-1.31-0.89-2.52-0.58-3.88
		c-0.03-3.32-0.07-6.63-0.1-9.95C207.31,1472.85,207.51,1472.65,207.7,1472.44z"/>
	<path class="st1" d="M207.12,1473.06c0.03,3.32,0.07,6.63,0.1,9.95C206.38,1479.7,206.49,1476.38,207.12,1473.06z"/>
	<path class="st2" d="M243.72,1307.19c2.77-1.83,5.98-2.67,9.14-3.48c12.71-3.29,24.74-1.14,36,5.24
		c6.92,3.92,12.63,9.48,17.6,15.61c9.44,11.65,15.68,24.96,18.98,39.58c3.64,16.08,3.75,32.19,0.19,48.35
		c-2.51,11.37-6.54,22.11-12.4,32.13c-5.23,8.95-11.69,16.91-19.82,23.42c-0.68,0.54-1.7,1.95-2.4,1.05c-0.73-0.95,0.96-1.48,1.61-2
		c11.4-9.14,19.32-20.92,25.15-34.07c5.34-12.06,8.23-24.78,8.98-38.03c0.82-14.55-1.07-28.62-6.02-42.3
		c-4.1-11.33-10.03-21.52-18.17-30.49c-6.33-6.97-13.45-12.7-22.37-15.92c-9.93-3.58-19.94-3.76-29.98-0.39
		c-2.09,0.7-4.17,1.42-6.26,2.13C243.87,1307.74,243.79,1307.47,243.72,1307.19z"/>
	<path class="st2" d="M253.91,1446.13c1.3-1.44,2.93-1.98,4.67-2.46c5.41-1.47,11.16-1.43,16.29-4.2
		c14.14-7.62,20.28-20.8,18.59-36.49c-1.04-9.67-4.7-17.89-11.77-24.53c-5.62-5.28-12.46-8.48-19.71-10.75
		c-11.04-3.46-22.43-4.31-33.93-3.93c-0.57,0.02-1.34,0.4-1.43-0.39c-0.1-0.93,0.81-0.86,1.45-0.88
		c11.01-0.38,21.86,0.57,32.53,3.48c8.97,2.45,16.96,6.59,23.6,13.12c4.09,4.03,6.88,8.92,8.52,14.41
		c2.59,8.67,3.44,17.48,0.56,26.22c-4.21,12.77-13.07,20.7-26.17,23.58C262.74,1444.27,258.28,1444.9,253.91,1446.13z"/>
	<path class="st2" d="M272.04,1309.02c1.75,1.65,1.92,3.74,2.55,5.52c5.72,15.95,13.71,30.69,23.26,44.65
		c4.74,6.92,9.34,13.98,11.7,22.14c5.94,20.56,1.99,38.82-13.09,54.35c-0.98,1-2.1,1.88-3.22,2.72c-0.49,0.37-1.01,1.54-1.76,0.52
		c-0.53-0.73,0.41-1.14,0.92-1.48c3.84-2.61,6.73-6.12,9.35-9.86c7.15-10.21,9.72-21.61,9-33.94c-0.56-9.56-4.16-18-9-26.03
		c-5.3-8.79-11.57-16.99-16.39-26.07c-3.37-6.35-6.68-12.75-9.19-19.52c-1.24-3.34-2.57-6.65-3.78-10
		C272.11,1311.19,271.52,1310.37,272.04,1309.02z"/>
	<path class="st2" d="M229.77,1441.22c-0.81-1.18-0.1-2.01,0.2-2.77c2.55-6.5,1.42-12.25-2.99-17.64c-2.25-2.74-4.46-5.56-6.16-8.72
		c-4.15-7.72,0.13-14.57,8.59-15.64c5.65-0.71,11.21,0.05,16.71,1.76c8.47,2.63,17.04,4.96,24.75,9.55
		c0.21,0.13,0.46,0.21,0.66,0.36c0.47,0.36,1.56,0.43,1.09,1.32c-0.51,0.97-1.11,0.05-1.62-0.23c-3.55-1.97-7.07-4.02-10.98-5.22
		c-9.39-2.87-18.44-7.32-28.65-6.48c-3.76,0.31-7.44,1-9.7,4.62c-0.54,0.87-0.89,1.79-1.07,2.76c-0.51,2.71,0.08,3.2,2.84,2.65
		c7.04-1.41,12.7,1.01,17.29,6.33c5.87,6.81,6.77,15.3,2.43,23.1c-0.36,0.65-0.77,1.29-1.26,1.84c-0.35,0.39-0.87,1-1.45,0.38
		c-0.43-0.46,0.08-0.86,0.38-1.26c2.63-3.58,4.25-7.54,3.89-12.05c-0.59-7.5-8.12-19.02-19.63-17.4c-3.81,0.54-4.34,1.42-2.26,4.68
		c2.41,3.77,5.42,7.1,7.82,10.9C233.68,1428.89,232.72,1436.57,229.77,1441.22z"/>
	<path class="st2" d="M275.55,1390.53c-2.55,1.03-4.86,0.11-7.05-0.12c-6.76-0.7-13.48-1.9-19.98-3.94
		c-6.92-2.18-13.66-4.9-18.84-10.25c-6.05-6.24-8.96-13.99-10.28-22.45c-1.24-7.92,0-15.54,2.6-23.01c0.36-1.03,0.69-2.17,2.21-3.07
		c-0.99,3.26-2.03,6.03-2.67,8.88c-2.84,12.63-1.26,24.59,6.16,35.39c3.94,5.74,9.76,9.21,16.16,11.56
		c9.39,3.44,19.07,5.62,29.12,5.95C273.77,1389.5,274.63,1389.43,275.55,1390.53z"/>
	<path class="st2" d="M223.91,1342.98c2.09,0.88,4.08,1.64,5.99,2.55c4.03,1.92,8.37,2.8,12.71,3.25c7.71,0.81,14.16-1.78,16.24-10
		c1.04-4.12-0.38-7.91-2.02-11.53c-1.88-4.15-4.47-7.89-7.56-11.27c-0.44-0.48-1.49-1.06-0.63-1.76c0.6-0.49,1.04,0.48,1.47,0.96
		c3.47,3.93,6.51,8.14,8.48,13.03c2.23,5.55,2.86,11.02-0.96,16.28c-2.47,3.4-5.87,5.21-9.87,5.53c-8.26,0.66-15.86-1.85-23.15-5.49
		C224.18,1344.32,223.71,1344.06,223.91,1342.98z"/>
	<path class="st2" d="M220.97,1460.99c0.94,4,0.29,7.84,3.03,10.63c2.83,2.88,6.39,1.68,10.07,1.36c-2.57,2.27-6.54,2.28-9.72,0.44
		C221.28,1471.63,219.86,1467.49,220.97,1460.99z"/>
	<path class="st3" d="M151.1,1474.37c-0.42,5.62-0.21,11.3-1.68,16.82c-4.08,15.3-14.7,23.38-29.61,26.32
		c-11.6,2.29-21.56-2.04-30.57-8.92c-6.07-4.64-11.47-10.02-16.17-16.08c-4.3-5.55-9.8-9.88-15.07-14.43
		c-9.28-7.99-16.6-17.57-22.68-28.13c-10.85-18.84-17.01-39.16-19.07-60.77c-1.57-16.53-0.54-32.81,4.52-48.73
		c5.06-15.94,13.73-29.37,27.26-39.46c10.82-8.06,22.44-14.47,35.78-17.29c9.73-2.05,19.47-2.13,29.04,0.75
		c14.38,4.32,25.37,13.22,33.6,25.65c8.14,12.29,12.29,25.83,12.72,40.54c0.02,0.81-0.18,1.73,0.91,2.06
		c0.12,7.79,0.32,15.6-1.02,23.31c-0.94,5.44-0.86,11.02-2.67,16.34c-0.78,2.31-0.9,4.85-1.27,7.29c-0.48,3.26-1.04,6.52-1.33,9.8
		c-0.46,5.26-1.72,10.45-1.64,15.75c0.08,5.23-0.14,10.48-0.81,15.62c-1,7.67-1.52,15.34-1.12,23.03c0.15,2.88,0.24,5.96,1.91,8.59
		C150.93,1472.63,151.16,1473.55,151.1,1474.37z M106.98,1303.71c-12.71-3.29-24.74-1.14-36,5.24c-6.92,3.92-12.63,9.48-17.6,15.61
		c-9.44,11.65-15.68,24.96-18.98,39.58c-3.64,16.08-3.75,32.19-0.19,48.35c2.51,11.37,6.54,22.11,12.4,32.13
		c5.23,8.95,11.69,16.91,19.82,23.42c0.68,0.54,1.7,1.95,2.4,1.05c0.73-0.95-0.96-1.48-1.61-2c-11.4-9.14-19.32-20.92-25.15-34.07
		c-5.34-12.06-8.23-24.78-8.98-38.03c-0.82-14.55,1.07-28.62,6.02-42.3c4.1-11.33,10.03-21.52,18.17-30.49
		c6.33-6.97,13.45-12.7,22.37-15.92c9.93-3.58,19.94-3.76,29.98-0.39c2.09,0.7,4.17,1.42,6.26,2.13c0.08-0.28,0.15-0.55,0.23-0.83
		C113.35,1305.36,110.13,1304.52,106.98,1303.71z M101.25,1443.67c-5.41-1.47-11.16-1.43-16.29-4.2
		c-14.14-7.62-20.28-20.8-18.59-36.49c1.04-9.67,4.7-17.89,11.77-24.53c5.62-5.28,12.46-8.48,19.71-10.75
		c11.04-3.46,22.43-4.31,33.93-3.93c0.57,0.02,1.34,0.4,1.43-0.39c0.1-0.93-0.81-0.86-1.45-0.88c-11.01-0.38-21.86,0.57-32.53,3.48
		c-8.97,2.45-16.96,6.59-23.6,13.12c-4.09,4.03-6.88,8.92-8.52,14.41c-2.59,8.67-3.44,17.48-0.56,26.22
		c4.21,12.77,13.07,20.7,26.17,23.58c4.38,0.96,8.84,1.6,13.21,2.82C104.62,1444.69,102.99,1444.15,101.25,1443.67z M85.24,1314.53
		c-5.72,15.95-13.71,30.69-23.26,44.65c-4.74,6.92-9.34,13.98-11.7,22.14c-5.94,20.56-1.99,38.82,13.09,54.35
		c0.98,1,2.1,1.88,3.22,2.72c0.49,0.37,1.01,1.54,1.76,0.52c0.53-0.73-0.41-1.14-0.92-1.48c-3.84-2.61-6.73-6.12-9.35-9.86
		c-7.15-10.21-9.72-21.61-9-33.94c0.56-9.56,4.16-18,9-26.03c5.3-8.79,11.57-16.99,16.39-26.07c3.37-6.35,6.68-12.75,9.19-19.52
		c1.24-3.34,2.57-6.65,3.78-10c0.29-0.81,0.88-1.63,0.36-2.98C86.05,1310.67,85.88,1312.75,85.24,1314.53z M129.86,1438.46
		c-2.55-6.5-1.42-12.25,2.99-17.64c2.25-2.74,4.46-5.56,6.16-8.72c4.15-7.72-0.13-14.57-8.59-15.64
		c-5.65-0.71-11.21,0.05-16.71,1.76c-8.47,2.63-17.04,4.96-24.75,9.55c-0.21,0.13-0.46,0.21-0.66,0.36
		c-0.47,0.36-1.56,0.43-1.09,1.32c0.51,0.97,1.11,0.05,1.62-0.23c3.55-1.97,7.07-4.02,10.98-5.22c9.39-2.87,18.44-7.32,28.65-6.48
		c3.76,0.31,7.44,1,9.7,4.62c0.54,0.87,0.89,1.79,1.07,2.76c0.51,2.71-0.08,3.2-2.84,2.65c-7.04-1.41-12.7,1.01-17.29,6.33
		c-5.87,6.81-6.77,15.3-2.43,23.1c0.36,0.65,0.77,1.29,1.26,1.84c0.35,0.39,0.87,1,1.45,0.38c0.43-0.46-0.08-0.86-0.38-1.26
		c-2.63-3.58-4.25-7.54-3.89-12.05c0.59-7.5,8.12-19.02,19.63-17.4c3.81,0.54,4.34,1.42,2.26,4.68c-2.41,3.77-5.42,7.1-7.82,10.9
		c-3.03,4.81-2.07,12.5,0.87,17.15C130.87,1440.04,130.15,1439.21,129.86,1438.46z M91.33,1390.42c6.76-0.7,13.48-1.9,19.98-3.94
		c6.92-2.18,13.66-4.9,18.84-10.25c6.05-6.24,8.96-13.99,10.28-22.45c1.24-7.92,0-15.54-2.6-23.01c-0.36-1.03-0.69-2.17-2.21-3.07
		c0.99,3.26,2.03,6.03,2.67,8.88c2.84,12.63,1.26,24.59-6.16,35.39c-3.94,5.74-9.76,9.21-16.16,11.56
		c-9.39,3.44-19.07,5.62-29.12,5.95c-0.81,0.03-1.66-0.04-2.59,1.06C86.83,1391.56,89.14,1390.65,91.33,1390.42z M129.93,1345.53
		c-4.03,1.92-8.37,2.8-12.71,3.25c-7.71,0.81-14.16-1.78-16.24-10c-1.04-4.12,0.38-7.91,2.02-11.53c1.88-4.15,4.47-7.89,7.56-11.27
		c0.44-0.48,1.49-1.06,0.63-1.76c-0.6-0.49-1.04,0.48-1.47,0.96c-3.47,3.93-6.51,8.14-8.48,13.03c-2.23,5.55-2.86,11.02,0.96,16.28
		c2.47,3.4,5.87,5.21,9.87,5.53c8.26,0.66,15.86-1.85,23.15-5.49c0.43-0.22,0.91-0.48,0.7-1.55
		C133.83,1343.87,131.84,1344.62,129.93,1345.53z M135.83,1471.62c-2.83,2.88-6.39,1.68-10.07,1.36c2.57,2.27,6.54,2.28,9.72,0.44
		c3.08-1.78,4.49-5.93,3.38-12.43C137.92,1464.99,138.57,1468.83,135.83,1471.62z"/>
	<path class="st2" d="M152.13,1472.44c-1.19,0.19-0.97,1.11-1.03,1.92c-0.42,5.62-0.21,11.3-1.68,16.82
		c-4.08,15.3-14.7,23.38-29.61,26.32c-11.6,2.29-21.56-2.04-30.57-8.92c-6.07-4.64-11.47-10.02-16.17-16.08
		c-4.3-5.55-9.8-9.88-15.07-14.43c-9.28-7.99-16.6-17.57-22.68-28.13c-10.85-18.84-17.01-39.16-19.07-60.77
		c-1.57-16.53-0.54-32.81,4.52-48.73c5.06-15.94,13.73-29.37,27.26-39.46c10.82-8.06,22.44-14.47,35.78-17.29
		c9.73-2.05,19.47-2.13,29.04,0.75c14.38,4.32,25.37,13.22,33.6,25.65c8.14,12.29,12.29,25.83,12.72,40.54
		c0.02,0.81-0.18,1.73,0.91,2.06c1.38-0.78,0.74-2.15,0.94-3.27c-0.63-2-0.38-4.07-0.52-6.11c-1.8-13.86-6.54-26.56-14.93-37.8
		c-7.05-9.44-15.93-16.57-26.88-21.04c-0.76-0.31-1.49-0.71-2.24-1.07c-1.64,0.1-3.23-0.02-4.5-1.25
		c-5.54-0.95-11.07-1.91-16.73-1.64c-1.15,0.12-2.34-0.08-3.45,0.4c-0.5,0-1.01,0.01-1.51,0.01c-0.66,0.01-1.32,0.01-1.98,0.02
		c-7.98,1.28-15.65,3.57-22.89,7.2c-17.05,8.55-31.56,19.82-40.44,37.27c-7.85,15.44-10.92,31.89-11.12,49.08
		c-0.24,20.58,3.78,40.32,11.49,59.29c6.34,15.58,14.99,29.79,27.05,41.72c4.9,4.84,10.64,8.76,15.33,13.82
		c3.72,4.01,7.13,8.3,10.9,12.25c7.67,8.04,16.31,14.67,27.39,17.32c18.43,4.4,43.34-7.14,46.04-32.04
		c0.14-1.31,0.89-2.52,0.58-3.88c0.03-3.32,0.07-6.63,0.1-9.95C152.52,1472.85,152.32,1472.65,152.13,1472.44z"/>
	<path class="st1" d="M152.71,1473.06c-0.03,3.32-0.07,6.63-0.1,9.95C153.46,1479.7,153.34,1476.38,152.71,1473.06z"/>
	<path class="st2" d="M116.12,1307.19c-2.77-1.83-5.98-2.67-9.14-3.48c-12.71-3.29-24.74-1.14-36,5.24
		c-6.92,3.92-12.63,9.48-17.6,15.61c-9.44,11.65-15.68,24.96-18.98,39.58c-3.64,16.08-3.75,32.19-0.19,48.35
		c2.51,11.37,6.54,22.11,12.4,32.13c5.23,8.95,11.69,16.91,19.82,23.42c0.68,0.54,1.7,1.95,2.4,1.05c0.73-0.95-0.96-1.48-1.61-2
		c-11.4-9.14-19.32-20.92-25.15-34.07c-5.34-12.06-8.23-24.78-8.98-38.03c-0.82-14.55,1.07-28.62,6.02-42.3
		c4.1-11.33,10.03-21.52,18.17-30.49c6.33-6.97,13.45-12.7,22.37-15.92c9.93-3.58,19.94-3.76,29.98-0.39
		c2.09,0.7,4.17,1.42,6.26,2.13C115.96,1307.74,116.04,1307.47,116.12,1307.19z"/>
	<path class="st2" d="M105.92,1446.13c-1.3-1.44-2.93-1.98-4.67-2.46c-5.41-1.47-11.16-1.43-16.29-4.2
		c-14.14-7.62-20.28-20.8-18.59-36.49c1.04-9.67,4.7-17.89,11.77-24.53c5.62-5.28,12.46-8.48,19.71-10.75
		c11.04-3.46,22.43-4.31,33.93-3.93c0.57,0.02,1.34,0.4,1.43-0.39c0.1-0.93-0.81-0.86-1.45-0.88c-11.01-0.38-21.86,0.57-32.53,3.48
		c-8.97,2.45-16.96,6.59-23.6,13.12c-4.09,4.03-6.88,8.92-8.52,14.41c-2.59,8.67-3.44,17.48-0.56,26.22
		c4.21,12.77,13.07,20.7,26.17,23.58C97.1,1444.27,101.56,1444.9,105.92,1446.13z"/>
	<path class="st2" d="M87.8,1309.02c-1.75,1.65-1.92,3.74-2.55,5.52c-5.72,15.95-13.71,30.69-23.26,44.65
		c-4.74,6.92-9.34,13.98-11.7,22.14c-5.94,20.56-1.99,38.82,13.09,54.35c0.98,1,2.1,1.88,3.22,2.72c0.49,0.37,1.01,1.54,1.76,0.52
		c0.53-0.73-0.41-1.14-0.92-1.48c-3.84-2.61-6.73-6.12-9.35-9.86c-7.15-10.21-9.72-21.61-9-33.94c0.56-9.56,4.16-18,9-26.03
		c5.3-8.79,11.57-16.99,16.39-26.07c3.37-6.35,6.68-12.75,9.19-19.52c1.24-3.34,2.57-6.65,3.78-10
		C87.72,1311.19,88.31,1310.37,87.8,1309.02z"/>
	<path class="st2" d="M130.06,1441.22c0.81-1.18,0.1-2.01-0.2-2.77c-2.55-6.5-1.42-12.25,2.99-17.64c2.25-2.74,4.46-5.56,6.16-8.72
		c4.15-7.72-0.13-14.57-8.59-15.64c-5.65-0.71-11.21,0.05-16.71,1.76c-8.47,2.63-17.04,4.96-24.75,9.55
		c-0.21,0.13-0.46,0.21-0.66,0.36c-0.47,0.36-1.56,0.43-1.09,1.32c0.51,0.97,1.11,0.05,1.62-0.23c3.55-1.97,7.07-4.02,10.98-5.22
		c9.39-2.87,18.44-7.32,28.65-6.48c3.76,0.31,7.44,1,9.7,4.62c0.54,0.87,0.89,1.79,1.07,2.76c0.51,2.71-0.08,3.2-2.84,2.65
		c-7.04-1.41-12.7,1.01-17.29,6.33c-5.87,6.81-6.77,15.3-2.43,23.1c0.36,0.65,0.77,1.29,1.26,1.84c0.35,0.39,0.87,1,1.45,0.38
		c0.43-0.46-0.08-0.86-0.38-1.26c-2.63-3.58-4.25-7.54-3.89-12.05c0.59-7.5,8.12-19.02,19.63-17.4c3.81,0.54,4.34,1.42,2.26,4.68
		c-2.41,3.77-5.42,7.1-7.82,10.9C126.15,1428.89,127.12,1436.57,130.06,1441.22z"/>
	<path class="st2" d="M84.28,1390.53c2.55,1.03,4.86,0.11,7.05-0.12c6.76-0.7,13.48-1.9,19.98-3.94c6.92-2.18,13.66-4.9,18.84-10.25
		c6.05-6.24,8.96-13.99,10.28-22.45c1.24-7.92,0-15.54-2.6-23.01c-0.36-1.03-0.69-2.17-2.21-3.07c0.99,3.26,2.03,6.03,2.67,8.88
		c2.84,12.63,1.26,24.59-6.16,35.39c-3.94,5.74-9.76,9.21-16.16,11.56c-9.39,3.44-19.07,5.62-29.12,5.95
		C86.06,1389.5,85.2,1389.43,84.28,1390.53z"/>
	<path class="st2" d="M135.92,1342.98c-2.09,0.88-4.08,1.64-5.99,2.55c-4.03,1.92-8.37,2.8-12.71,3.25
		c-7.71,0.81-14.16-1.78-16.24-10c-1.04-4.12,0.38-7.91,2.02-11.53c1.88-4.15,4.47-7.89,7.56-11.27c0.44-0.48,1.49-1.06,0.63-1.76
		c-0.6-0.49-1.04,0.48-1.47,0.96c-3.47,3.93-6.51,8.14-8.48,13.03c-2.23,5.55-2.86,11.02,0.96,16.28c2.47,3.4,5.87,5.21,9.87,5.53
		c8.26,0.66,15.86-1.85,23.15-5.49C135.65,1344.32,136.12,1344.06,135.92,1342.98z"/>
	<path class="st2" d="M138.86,1460.99c-0.94,4-0.29,7.84-3.03,10.63c-2.83,2.88-6.39,1.68-10.07,1.36c2.57,2.27,6.54,2.28,9.72,0.44
		C138.55,1471.63,139.97,1467.49,138.86,1460.99z"/>
</g>
<path class="st3" d="M180.34,1220c0,0.49-0.01,0.97-0.01,1.46C179.2,1220.97,179.23,1220.48,180.34,1220z"/>
<path class="st3" d="M385.66,1220c0,0.49,0.01,0.97,0.01,1.46C386.8,1220.97,386.76,1220.48,385.66,1220z"/>
<g>
	<path class="st4" d="M33.12,955.16c0.04-3.38,0.27-6.68,3.2-9.04c3.63-2.93,9.41-1.13,10.68,3.3c0.96,3.35,0.86,6.7,0.27,10.09
		c-0.38,2.23-1.71,3.38-3.87,3.64c-2.33,0.28-4.64,0.05-6.9-0.47c-1.98-0.46-2.9-1.93-3.16-3.82
		C33.18,957.64,33.19,956.4,33.12,955.16z"/>
	<path class="st3" d="M72.43,1212.91c-19.59,0.02-39.18,0.02-58.77,0.07c-3.25,0.01-6.54-0.41-9.72,0.64
		c1.74-2.5,1.8-5.56,2.06-8.31c0.49-5.22,0.77-10.5,0.59-15.78c-0.17-4.98-1.26-9.48-4.29-13.66c-4.71-6.48-9.33-13.03-12.67-20.41
		c-3.25-7.16-5.32-14.68-7.03-22.26c-2.01-8.89-3.27-17.94-4.99-26.89c-1.41-7.37-3.39-14.65-4.01-22.14
		c-0.59-7.15-1.87-14.1-4.66-20.74c-1.62-3.84-3.31-7.67-4.68-11.6c-3.28-9.43-5.16-19.26-8.04-28.82
		c-0.81-2.68-1.72-5.47-1.58-9.07c1.5,2.42,3.26,2.98,5.32,2.62c1.67-0.29,3.29-0.81,4.82-1.57c1.97-0.98,2.83-2.52,2.54-4.73
		c-0.3-2.27-0.52-4.55-0.85-7.42c1.63,1.78,2.12,3.47,2.57,5.13c2.09,7.86,4.64,15.6,7.72,23.09c3.52,8.57,8.12,16.68,10.9,25.59
		c0.84,2.68,2.03,5.39,4.13,7.47c2.43,2.41,5.24,1.96,6.82-1.08c0.75-1.46,1.1-3.02,1.15-4.69c0.18-5.85-0.77-11.57-1.73-17.3
		c-1.42-8.53-3.81-16.93-3.44-25.71c0.3-7.05-0.15-14.08-0.97-21.09c-0.14-1.16,0.23-2.85,0.01-3.45c-0.72-1.88-0.93-3.78-1.15-5.69
		c-0.33-2.83-0.49-5.68-0.76-9.06c2.14,3.51,4.2,3.94,9,3.23c8.1-1.2,5.25-7.34,5.55-12.56c1.2,1.49,1.74,2.75,2.11,4.06
		c1.08,3.81,1.34,7.69,1.54,11.66c0.42,8.33,1.45,16.63,3.2,24.81c2.29,10.76,4.38,21.52,4.54,32.59c0.05,3.53,0.48,7.14,2.27,10.34
		c1.54,2.76,4.43,2.93,6.45,0.47c0.83-1,1.1-2.19,1.23-3.44c0.81-7.71,0.61-15.46,0.87-23.2c0.2-6.03-0.63-12.09,0.49-18.09
		c1.57-8.48,1.97-17.07,2.17-25.65c0.16-6.96-0.19-13.94-0.22-20.91c-0.01-2.06,0.15-4.14,1.24-6.03c0.29,2.04,0.18,4.06,0.32,6.06
		c0.15,2.11,1.24,3.58,3.41,4.14c2.82,0.72,5.68,0.75,8.54,0.42c2-0.22,3.22-1.44,3.59-3.41c0.31-1.63,0.51-3.28,0.79-5.17
		c0.58,1.02,0.63,1.92,0.73,2.84c0.61,5.33,0.47,10.67,0.5,16.02c0.05,7.74-0.63,15.53,0.37,23.22c1.33,10.12,1.46,20.13-0.17,30.26
		c-1.08,6.69-1.71,13.53-0.7,20.35c0.57,3.85,3.59,5.83,7.2,4.57c2.45-0.85,4.35-2.43,5.17-4.97c0.72-2.21,1.34-4.45,1.88-6.7
		c1.95-8.04,3.38-16.21,5.94-24.09c1.53-4.7,3.85-9.16,5.18-13.91c2.7-9.6,5.36-19.21,8.55-28.67c0.5-1.48,0.81-3.07,2.07-4.37
		c0.61,6.77,0.86,7.22,4.78,8.05c2.13,0.45,4.34,0.73,6.44,0.13c2.3-0.65,3.22-2.67,3.79-4.9c0.48,4.55,0.18,8.94-0.87,13.25
		c-1.33,5.49-2.85,10.93-4.1,16.43c-1.89,8.3-2.23,16.89-4.6,25.1c-0.81,2.82-1.79,5.61-2.41,8.48c-1.56,7.26-1.87,14.69-2.78,22.04
		c-1,8.07-0.68,16.21,0.12,24.29c0.57,5.69,1.13,11.41,3.07,16.86c1.51,4.25,5.35,5.25,8.78,2.32c2.36-2.01,3.8-4.62,5.15-7.34
		c2.25-4.54,3.37-9.47,5.16-14.17c1.7-4.47,3.39-8.94,6.54-12.66c0,0,0.05,0.06,0.05,0.06l-0.05-0.05c2.55-5.44,12.9-14.66,18-13.3
		c-0.95,1.4-2.09,2.71-2.8,4.21c-2.35,4.97-2.39,6.64,1.86,9.71c2.49,1.8,5.27,3.21,8.03,4.58c1.13,0.56,1.49,0.77,0.83,2.07
		c-3.16,6.19-5.46,12.71-9.96,18.34c-4.33,5.41-6.83,12.06-8.06,19.04c-1.16,6.54-3.14,12.81-7.44,18.03
		c-9.73,11.81-19.33,23.71-28.1,36.28c-2.69,3.85-5.7,7.56-9.66,10.19c-2.15,1.43-3.4,3.25-4.11,5.63c-1.08,3.6-1.3,7.29-1.38,11.01
		C71.67,1200.08,72.12,1206.49,72.43,1212.91z M32.71,1013.79c4.67-1.35,9.35-1.1,14.03-0.09
		C43.24,1011.71,35.44,1011.75,32.71,1013.79z M87.64,1023c-2-2.67-9.34-4.82-13.76-3.9C79,1019.92,83.62,1020.42,87.64,1023z"/>
	<path class="st2" d="M114.62,1067.86c-3.15,3.72-4.84,8.19-6.54,12.66c-1.78,4.7-2.91,9.63-5.16,14.17
		c-1.35,2.72-2.79,5.33-5.15,7.34c-3.43,2.93-7.27,1.93-8.78-2.32c-1.94-5.45-2.5-11.17-3.07-16.86
		c-0.81-8.08-1.12-16.22-0.12-24.29c0.91-7.35,1.22-14.78,2.78-22.04c0.62-2.87,1.6-5.66,2.41-8.48c2.37-8.22,2.71-16.8,4.6-25.1
		c1.25-5.5,2.77-10.95,4.1-16.43c1.04-4.31,1.35-8.7,0.87-13.25c-0.57,2.22-1.49,4.25-3.79,4.9c-2.11,0.6-4.31,0.32-6.44-0.13
		c-3.92-0.83-4.17-1.28-4.78-8.05c-1.26,1.3-1.57,2.89-2.07,4.37c-3.19,9.45-5.85,19.06-8.55,28.67c-1.34,4.75-3.65,9.21-5.18,13.91
		c-2.57,7.87-4,16.05-5.94,24.09c-0.55,2.25-1.17,4.5-1.88,6.7c-0.82,2.54-2.72,4.12-5.17,4.97c-3.62,1.26-6.63-0.72-7.2-4.57
		c-1.01-6.83-0.37-13.67,0.7-20.35c1.63-10.13,1.5-20.14,0.17-30.26c-1.01-7.69-0.33-15.48-0.37-23.22
		c-0.03-5.34,0.11-10.69-0.5-16.02c-0.11-0.91-0.16-1.82-0.73-2.84c-0.28,1.88-0.49,3.53-0.79,5.17c-0.37,1.97-1.6,3.19-3.59,3.41
		c-2.86,0.32-5.72,0.3-8.54-0.42c-2.18-0.56-3.27-2.03-3.41-4.14c-0.14-2-0.03-4.02-0.32-6.06c-1.09,1.88-1.25,3.97-1.24,6.03
		c0.03,6.97,0.39,13.95,0.22,20.91c-0.2,8.58-0.6,17.17-2.17,25.65c-1.11,6-0.28,12.06-0.49,18.09c-0.26,7.73-0.05,15.48-0.87,23.2
		c-0.13,1.25-0.41,2.44-1.23,3.44c-2.03,2.45-4.91,2.29-6.45-0.47c-1.79-3.2-2.22-6.82-2.27-10.34
		c-0.16-11.07-2.25-21.83-4.54-32.59c-1.74-8.18-2.78-16.48-3.2-24.81c-0.2-3.97-0.46-7.85-1.54-11.66
		c-0.37-1.32-0.92-2.57-2.11-4.06c-0.3,5.21,2.55,11.36-5.55,12.56c-4.8,0.71-6.86,0.28-9-3.23c0.28,3.38,0.43,6.23,0.76,9.06
		c0.22,1.91,0.43,3.81,1.15,5.69c0.23,0.59-0.14,2.29-0.01,3.45c0.82,7.01,1.27,14.03,0.97,21.09c-0.37,8.78,2.02,17.18,3.44,25.71
		c0.95,5.73,1.9,11.45,1.73,17.3c-0.05,1.67-0.4,3.24-1.15,4.69c-1.57,3.04-4.39,3.49-6.82,1.08c-2.1-2.08-3.29-4.78-4.13-7.47
		c-2.78-8.91-7.39-17.02-10.9-25.59c-3.08-7.49-5.63-15.23-7.72-23.09c-0.44-1.67-0.93-3.35-2.57-5.13
		c0.32,2.87,0.55,5.15,0.85,7.42c0.29,2.21-0.57,3.75-2.54,4.73c-1.53,0.76-3.15,1.28-4.82,1.57c-2.06,0.36-3.83-0.2-5.32-2.62
		c-0.14,3.6,0.77,6.39,1.58,9.07c2.88,9.55,4.75,19.39,8.04,28.82c1.37,3.93,3.06,7.76,4.68,11.6c2.79,6.64,4.07,13.58,4.66,20.74
		c0.62,7.49,2.59,14.77,4.01,22.14c1.72,8.96,2.98,18.01,4.99,26.89c1.71,7.58,3.78,15.1,7.03,22.26
		c3.35,7.38,7.96,13.94,12.67,20.41c3.04,4.18,4.12,8.68,4.29,13.66c0.18,5.28-0.1,10.56-0.59,15.78c-0.26,2.76-0.32,5.81-2.06,8.31
		c-0.2-0.05-0.4-0.1-0.61-0.16c0-0.49,0.01-0.97,0.01-1.46c1.57-7.24,1.42-14.6,1.6-21.95c0.14-5.9-2.02-10.82-5.54-15.35
		c-4.43-5.69-8.15-11.87-11.24-18.35c-2.82-5.9-4.49-12.26-6.12-18.6c-3.72-14.49-5.37-29.38-8.7-43.95
		c-1.21-5.28-1.59-10.7-2.17-16.09c-0.87-8.04-4.49-15.24-7.6-22.56c-1.57-3.69-2.6-7.53-3.5-11.4c-2.1-9.05-5.23-17.83-7-26.96
		c-0.95-4.9-1.6-9.85,0.59-14.59c2.62-5.66,9.04-6.48,13.32-1.79c1.97,2.16,3.1,4.76,3.91,7.55c2.79,9.61,5.29,19.36,10.1,28.2
		c4.06,7.45,6.25,15.63,9.78,23.26c0.59,1.27,1.33,2.45,2.32,3.45c1.42,1.44,2.61,1.31,3.78-0.39c0.97-1.4,1.2-2.99,1.23-4.64
		c0.12-6.55-0.97-12.98-2.29-19.34c-1.99-9.51-3.25-19.05-2.86-28.81c0.34-8.39-1.41-16.63-2.2-24.94
		c-0.46-4.78-1.13-9.54-0.31-14.35c0.47-2.74,1.85-5.1,3.22-7.38c1.67-2.76,5.84-2.95,8.77-1.46c5.17,2.63,7.63,6.88,8.54,12.33
		c0.2,1.54,0.4,3.09,0.61,4.63c-0.02,0.63-0.05,1.26-0.07,1.88c0.08,0.19,0.15,0.37,0.23,0.56c0,0-0.02,0.03-0.02,0.03
		c0.05,0.91,0.04,1.81-0.34,2.67c1.43,13.06,3.78,25.96,6.51,38.8c0.57,2.71,0.26,5.6,0.68,8.26c0.86,5.42,0.19,11,1.88,16.29
		c0.49,1.54,0.93,3.55,2.84,3.52c2.04-0.04,2.41-2.07,2.75-3.76c0.17-0.83,0.3-1.68,0.32-2.52c0.18-10.14,0.78-20.28,0.24-30.43
		c-0.27-5.16,1.23-10.13,1.77-15.2c1.33-12.52,1.18-25.06,0.89-37.61c-0.07-3.02-0.12-6.16,1.23-8.91c1.8-3.68,4.07-7.12,8.49-8.19
		c3.59-0.87,6.77,0.68,8.63,3.83c2.93,4.96,3.88,10.36,4.08,16c0.36,10.23-0.46,20.46,0.15,30.68c0.29,4.79,0.99,9.54,1.42,14.32
		c0.7,7.64-1.13,15.1-1.75,22.64c-0.42,5.02-0.8,10.04-0.43,15.08c0.16,2.17,0.46,4.26,3.13,4.75c2.08,0.38,5.03-1.37,5.88-3.69
		c0.82-2.25,1.42-4.58,2.03-6.9c2.27-8.6,3.56-17.46,6.52-25.88c2.03-5.75,4.96-11.2,6.19-17.22c1.89-9.28,5.45-18.04,8.23-27.04
		c1.34-4.35,4.46-7.37,7.89-9.98c3.11-2.37,7.61-0.83,9.26,2.99c2.98,6.87,2.74,14.03,1.57,21.24c-1.11,6.9-3.67,13.45-4.87,20.31
		c-1.14,6.48-2.01,13.01-3.32,19.44c-0.93,4.54-2.76,8.9-3.54,13.45c-1.14,6.63-1.76,13.35-2.51,20.05
		c-1.45,12.93-0.42,25.73,2.26,38.43c0.13,0.6,0.29,1.2,0.49,1.79c0.53,1.53,0.87,3.34,2.82,3.61c1.89,0.26,3.42-0.73,4.64-2.13
		c3.5-4.02,5.17-8.93,6.73-13.89c1.6-5.1,3.27-10.19,5.94-14.84c4.42-7.7,9.74-14.51,18.49-17.77c4.1-1.53,8.4-1.4,12.61-1.4
		c4.36-0.01,6.39,2.7,6.48,7.09c0.09,4.94-2.11,9.13-4.11,13.4c-2.19,4.69-4.41,9.37-6.6,14.06c-1.19,2.54-2.6,4.95-4.41,7.08
		c-4.48,5.28-7.08,11.52-8.38,18.14c-1.84,9.33-5.43,17.46-11.82,24.73c-9.19,10.45-17.35,21.75-25.5,33.04
		c-2.62,3.63-5.52,7.06-9.41,9.49c-2.72,1.71-3.19,4.68-3.65,7.47c-1.12,6.85-0.69,13.75-0.33,20.64c0.09,1.78,0.3,3.55,0.35,5.33
		c0.05,1.69-0.63,1.8-1.71,0.63c-0.3-6.42-0.76-12.83-0.61-19.26c0.08-3.72,0.3-7.41,1.38-11.01c0.71-2.38,1.96-4.2,4.11-5.63
		c3.96-2.64,6.97-6.34,9.66-10.19c8.77-12.56,18.37-24.46,28.1-36.28c4.3-5.22,6.28-11.48,7.44-18.03
		c1.23-6.98,3.74-13.63,8.06-19.04c4.5-5.62,6.8-12.15,9.96-18.34c0.66-1.3,0.3-1.51-0.83-2.07c-2.76-1.37-5.54-2.79-8.03-4.58
		c-4.25-3.07-4.2-4.74-1.86-9.71c0.71-1.51,1.85-2.81,2.8-4.21C127.52,1053.2,117.16,1062.42,114.62,1067.86L114.62,1067.86z
		 M147.15,1058.13c0.11-1.93-1.36-4.14-3.71-4.98c-5.45-1.93-11.5,1.63-13.57,7.99c-0.95,2.91-0.58,4.2,1.81,6.03
		c2.53,1.93,5.32,3.42,8.17,4.8c0.65,0.31,1.19,0.61,1.76-0.24C144.3,1067.74,146.6,1063.58,147.15,1058.13z M33.12,955.16
		c0.07,1.23,0.05,2.48,0.22,3.7c0.26,1.89,1.18,3.36,3.16,3.82c2.27,0.53,4.58,0.75,6.9,0.47c2.16-0.26,3.48-1.41,3.87-3.64
		c0.58-3.39,0.69-6.74-0.27-10.09c-1.27-4.43-7.05-6.23-10.68-3.3C33.39,948.48,33.17,951.78,33.12,955.16z M93.75,977.31
		c3.42,0.11,4.32-0.34,5.24-2.98c0.81-2.34,1.34-4.76,1.35-7.25c0.01-2.99-2.46-5.97-5.31-6.52c-2.6-0.51-5.01,1.16-6.24,4.37
		c-0.47,1.22-0.9,2.46-1.27,3.72C85.55,975.25,86.88,977.09,93.75,977.31z M5.38,971.39c0.29-3-0.45-5.65-2.56-7.88
		c-1.59-1.67-3.45-2.31-5.66-1.69c-2.33,0.65-3.73,2.34-3.95,4.65c-0.25,2.6-0.66,5.21-0.45,7.85c0.08,1.02,0.19,2.04,0.87,2.83
		c1.44,1.69,3.4,1.74,5.33,1.32c2.32-0.51,5.12-0.24,6.21-3.17C5.64,974.03,5.32,972.68,5.38,971.39z M-33.66,1009.92
		c-0.48-3.53-0.47-7.25-3.42-9.99c-2.91-2.7-6.91-1.66-7.95,2.17c-0.92,3.38-0.16,6.77,0.38,10.09c0.47,2.9,2.41,3.85,5.33,3.12
		c0.89-0.22,1.77-0.53,2.64-0.84C-34.56,1013.72-33.23,1012.42-33.66,1009.92z M-45.41,1013.46c-0.13-0.25-0.13-0.58-0.44-0.45
		c-0.15,0.06-0.29,0.31-0.3,0.48c-0.01,0.19,0.08,0.5,0.38,0.38C-45.61,1013.81-45.51,1013.59-45.41,1013.46z"/>
	<path class="st3" d="M11.36,983.68c0.39-0.85,0.39-1.76,0.34-2.67c0.66-0.1,0.99,0.2,1.04,0.86c0.03,0.45,0.02,0.89,0.45,1.22
		c0.49,0.39,2.05-0.26,1.49,0.92c-0.55,1.14-1.79,0.72-2.67-0.15C11.87,983.73,11.58,983.74,11.36,983.68z"/>
	<path class="st3" d="M11.57,978.54c-0.2-1.54-0.4-3.09-0.61-4.63C12.66,975.25,11.71,976.95,11.57,978.54z"/>
	<path class="st3" d="M11.73,980.98c-0.08-0.19-0.15-0.37-0.23-0.56C11.58,980.61,11.65,980.79,11.73,980.98z"/>
	<path class="st2" d="M32.71,1013.79c2.73-2.04,10.53-2.08,14.03-0.09C42.06,1012.69,37.38,1012.44,32.71,1013.79z"/>
	<path class="st2" d="M87.64,1023c-4.01-2.59-8.64-3.08-13.76-3.9C78.3,1018.19,85.64,1020.33,87.64,1023z"/>
	<polygon class="st3" points="114.61,1067.86 114.67,1067.92 114.62,1067.86 	"/>
	<path class="st4" d="M147.15,1058.13c-0.56,5.45-2.86,9.61-5.55,13.61c-0.57,0.85-1.11,0.55-1.76,0.24
		c-2.85-1.38-5.64-2.87-8.17-4.8c-2.39-1.83-2.76-3.12-1.81-6.03c2.08-6.36,8.12-9.92,13.57-7.99
		C145.8,1053.99,147.27,1056.2,147.15,1058.13z"/>
	<path class="st4" d="M93.75,977.31c-6.86-0.22-8.19-2.06-6.24-8.67c0.37-1.26,0.8-2.5,1.27-3.72c1.22-3.2,3.64-4.87,6.24-4.37
		c2.85,0.56,5.32,3.53,5.31,6.52c-0.01,2.49-0.53,4.91-1.35,7.25C98.06,976.97,97.16,977.42,93.75,977.31z"/>
	<path class="st4" d="M5.38,971.39c-0.06,1.29,0.26,2.63-0.21,3.9c-1.09,2.93-3.89,2.66-6.21,3.17c-1.93,0.42-3.89,0.37-5.33-1.32
		c-0.67-0.79-0.78-1.8-0.87-2.83c-0.21-2.64,0.2-5.25,0.45-7.85c0.22-2.31,1.61-4,3.95-4.65c2.21-0.62,4.07,0.02,5.66,1.69
		C4.93,965.74,5.67,968.39,5.38,971.39z"/>
	<path class="st4" d="M-33.66,1009.92c0.43,2.5-0.9,3.8-3.02,4.55c-0.87,0.31-1.74,0.62-2.64,0.84c-2.93,0.73-4.86-0.22-5.33-3.12
		c-0.54-3.32-1.3-6.71-0.38-10.09c1.04-3.83,5.04-4.87,7.95-2.17C-34.13,1002.67-34.14,1006.39-33.66,1009.92z"/>
	<path class="st3" d="M-45.41,1013.46c-0.11,0.13-0.2,0.35-0.36,0.41c-0.31,0.12-0.4-0.18-0.38-0.38c0.01-0.17,0.15-0.42,0.3-0.48
		C-45.53,1012.88-45.54,1013.21-45.41,1013.46z"/>
	<path class="st4" d="M326.71,955.16c-0.04-3.38-0.27-6.68-3.2-9.04c-3.63-2.93-9.41-1.13-10.68,3.3c-0.96,3.35-0.86,6.7-0.27,10.09
		c0.38,2.23,1.71,3.38,3.87,3.64c2.33,0.28,4.64,0.05,6.9-0.47c1.98-0.46,2.9-1.93,3.16-3.82
		C326.65,957.64,326.64,956.4,326.71,955.16z"/>
	<path class="st3" d="M288.02,1193.65c-0.08-3.72-0.3-7.41-1.38-11.01c-0.71-2.38-1.96-4.2-4.11-5.63
		c-3.96-2.64-6.97-6.34-9.66-10.19c-8.77-12.56-18.37-24.46-28.1-36.28c-4.3-5.22-6.28-11.48-7.44-18.03
		c-1.23-6.98-3.74-13.63-8.06-19.04c-4.5-5.62-6.8-12.15-9.96-18.34c-0.66-1.3-0.3-1.51,0.83-2.07c2.76-1.37,5.54-2.79,8.03-4.58
		c4.25-3.07,4.2-4.74,1.86-9.71c-0.71-1.51-1.85-2.81-2.8-4.21c5.1-1.36,15.46,7.86,18,13.3l-0.05,0.05c0,0,0.05-0.06,0.05-0.06
		c3.15,3.72,4.84,8.19,6.54,12.66c1.78,4.7,2.91,9.63,5.16,14.17c1.35,2.72,2.79,5.33,5.15,7.34c3.43,2.93,7.27,1.93,8.78-2.32
		c1.94-5.45,2.5-11.17,3.07-16.86c0.81-8.08,1.12-16.22,0.12-24.29c-0.91-7.35-1.22-14.78-2.78-22.04c-0.62-2.87-1.6-5.66-2.41-8.48
		c-2.37-8.22-2.71-16.8-4.6-25.1c-1.25-5.5-2.77-10.95-4.1-16.43c-1.04-4.31-1.35-8.7-0.87-13.25c0.57,2.22,1.49,4.25,3.79,4.9
		c2.11,0.6,4.31,0.32,6.44-0.13c3.92-0.83,4.17-1.28,4.78-8.05c1.26,1.3,1.57,2.89,2.07,4.37c3.19,9.45,5.85,19.06,8.55,28.67
		c1.34,4.75,3.65,9.21,5.18,13.91c2.57,7.87,4,16.05,5.94,24.09c0.55,2.25,1.17,4.5,1.88,6.7c0.82,2.54,2.72,4.12,5.17,4.97
		c3.62,1.26,6.63-0.72,7.2-4.57c1.01-6.83,0.37-13.67-0.7-20.35c-1.63-10.13-1.5-20.14-0.17-30.26c1.01-7.69,0.33-15.48,0.37-23.22
		c0.03-5.34-0.11-10.69,0.5-16.02c0.11-0.91,0.16-1.82,0.73-2.84c0.28,1.88,0.49,3.53,0.79,5.17c0.37,1.97,1.6,3.19,3.59,3.41
		c2.86,0.32,5.72,0.3,8.54-0.42c2.18-0.56,3.27-2.03,3.41-4.14c0.14-2,0.03-4.02,0.32-6.06c1.09,1.88,1.25,3.97,1.24,6.03
		c-0.03,6.97-0.39,13.95-0.22,20.91c0.2,8.58,0.6,17.17,2.17,25.65c1.11,6,0.28,12.06,0.49,18.09c0.26,7.73,0.05,15.48,0.87,23.2
		c0.13,1.25,0.41,2.44,1.23,3.44c2.03,2.45,4.91,2.29,6.45-0.47c1.79-3.2,2.22-6.82,2.27-10.34c0.16-11.07,2.25-21.83,4.54-32.59
		c1.74-8.18,2.78-16.48,3.2-24.81c0.2-3.97,0.46-7.85,1.54-11.66c0.37-1.32,0.92-2.57,2.11-4.06c0.3,5.21-2.55,11.36,5.55,12.56
		c4.8,0.71,6.86,0.28,9-3.23c-0.28,3.38-0.43,6.23-0.76,9.06c-0.22,1.91-0.43,3.81-1.15,5.69c-0.23,0.59,0.14,2.29,0.01,3.45
		c-0.82,7.01-1.27,14.03-0.97,21.09c0.37,8.78-2.02,17.18-3.44,25.71c-0.95,5.73-1.9,11.45-1.73,17.3c0.05,1.67,0.4,3.24,1.15,4.69
		c1.57,3.04,4.39,3.49,6.82,1.08c2.1-2.08,3.29-4.78,4.13-7.47c2.78-8.91,7.39-17.02,10.9-25.59c3.08-7.49,5.63-15.23,7.72-23.09
		c0.44-1.67,0.93-3.35,2.57-5.13c-0.32,2.87-0.55,5.15-0.85,7.42c-0.29,2.21,0.57,3.75,2.54,4.73c1.53,0.76,3.15,1.28,4.82,1.57
		c2.06,0.36,3.83-0.2,5.32-2.62c0.14,3.6-0.77,6.39-1.58,9.07c-2.88,9.55-4.75,19.39-8.04,28.82c-1.37,3.93-3.06,7.76-4.68,11.6
		c-2.79,6.64-4.07,13.58-4.66,20.74c-0.62,7.49-2.59,14.77-4.01,22.14c-1.72,8.96-2.98,18.01-4.99,26.89
		c-1.71,7.58-3.78,15.1-7.03,22.26c-3.35,7.38-7.96,13.94-12.67,20.41c-3.04,4.18-4.12,8.68-4.29,13.66
		c-0.18,5.28,0.1,10.56,0.59,15.78c0.26,2.76,0.32,5.81,2.06,8.31c-3.18-1.05-6.47-0.63-9.72-0.64
		c-19.59-0.05-39.18-0.05-58.77-0.07C287.71,1206.49,288.16,1200.08,288.02,1193.65z M313.09,1013.7c4.68-1.01,9.36-1.26,14.03,0.09
		C324.39,1011.75,316.59,1011.71,313.09,1013.7z M285.96,1019.1c-4.42-0.92-11.77,1.23-13.76,3.9
		C276.21,1020.42,280.83,1019.92,285.96,1019.1z"/>
	<path class="st2" d="M245.22,1067.86c-2.55-5.44-12.9-14.66-18-13.3c0.95,1.4,2.09,2.71,2.8,4.21c2.35,4.97,2.39,6.64-1.86,9.71
		c-2.49,1.8-5.27,3.21-8.03,4.58c-1.13,0.56-1.49,0.77-0.83,2.07c3.16,6.19,5.46,12.71,9.96,18.34c4.33,5.41,6.83,12.06,8.06,19.04
		c1.16,6.54,3.14,12.81,7.44,18.03c9.73,11.81,19.33,23.71,28.1,36.28c2.69,3.85,5.7,7.56,9.66,10.19c2.15,1.43,3.4,3.25,4.11,5.63
		c1.08,3.6,1.3,7.29,1.38,11.01c0.15,6.43-0.3,12.84-0.61,19.26c-1.08,1.16-1.76,1.06-1.71-0.63c0.05-1.78,0.26-3.55,0.35-5.33
		c0.36-6.89,0.79-13.79-0.33-20.64c-0.46-2.8-0.92-5.77-3.65-7.47c-3.89-2.43-6.79-5.86-9.41-9.49
		c-8.15-11.29-16.31-22.6-25.5-33.04c-6.39-7.26-9.98-15.39-11.82-24.73c-1.3-6.63-3.91-12.86-8.38-18.14
		c-1.81-2.13-3.22-4.54-4.41-7.08c-2.19-4.69-4.41-9.37-6.6-14.06c-2-4.27-4.2-8.46-4.11-13.4c0.08-4.39,2.11-7.09,6.48-7.09
		c4.2,0.01,8.51-0.12,12.61,1.4c8.75,3.26,14.07,10.06,18.49,17.77c2.67,4.65,4.33,9.74,5.94,14.84c1.56,4.96,3.23,9.87,6.73,13.89
		c1.22,1.4,2.75,2.4,4.64,2.13c1.94-0.27,2.29-2.08,2.82-3.61c0.2-0.58,0.37-1.18,0.49-1.79c2.68-12.7,3.71-25.49,2.26-38.43
		c-0.75-6.69-1.36-13.42-2.51-20.05c-0.78-4.55-2.62-8.92-3.54-13.45c-1.31-6.44-2.18-12.97-3.32-19.44
		c-1.21-6.87-3.76-13.42-4.87-20.31c-1.16-7.21-1.41-14.36,1.57-21.24c1.66-3.82,6.15-5.36,9.26-2.99c3.43,2.61,6.54,5.63,7.89,9.98
		c2.78,9,6.34,17.75,8.23,27.04c1.23,6.02,4.16,11.47,6.19,17.22c2.96,8.41,4.26,17.27,6.52,25.88c0.61,2.32,1.21,4.65,2.03,6.9
		c0.85,2.32,3.8,4.07,5.88,3.69c2.67-0.48,2.97-2.58,3.13-4.75c0.37-5.04-0.01-10.06-0.43-15.08c-0.63-7.55-2.45-15-1.75-22.64
		c0.44-4.78,1.14-9.54,1.42-14.32c0.61-10.22-0.2-20.45,0.15-30.68c0.2-5.64,1.15-11.04,4.08-16c1.86-3.15,5.04-4.7,8.63-3.83
		c4.42,1.07,6.69,4.51,8.49,8.19c1.34,2.75,1.3,5.88,1.23,8.91c-0.29,12.55-0.43,25.09,0.89,37.61c0.54,5.08,2.04,10.04,1.77,15.2
		c-0.54,10.15,0.06,20.29,0.24,30.43c0.02,0.84,0.15,1.69,0.32,2.52c0.34,1.68,0.71,3.72,2.75,3.76c1.91,0.04,2.35-1.98,2.84-3.52
		c1.69-5.29,1.02-10.87,1.88-16.29c0.42-2.66,0.11-5.55,0.68-8.26c2.72-12.84,5.08-25.74,6.51-38.8c-0.39-0.85-0.39-1.76-0.34-2.67
		c0,0-0.02-0.03-0.02-0.03c0.08-0.19,0.15-0.37,0.23-0.56c-0.02-0.63-0.05-1.26-0.07-1.88c0.2-1.54,0.4-3.09,0.61-4.63
		c0.91-5.45,3.37-9.7,8.54-12.33c2.93-1.49,7.1-1.31,8.77,1.46c1.37,2.28,2.75,4.64,3.22,7.38c0.82,4.81,0.15,9.57-0.31,14.35
		c-0.79,8.31-2.54,16.55-2.2,24.94c0.39,9.76-0.87,19.3-2.86,28.81c-1.33,6.36-2.42,12.79-2.29,19.34c0.03,1.65,0.26,3.24,1.23,4.64
		c1.17,1.7,2.36,1.82,3.78,0.39c0.99-1,1.73-2.18,2.32-3.45c3.54-7.63,5.73-15.81,9.78-23.26c4.81-8.84,7.31-18.59,10.1-28.2
		c0.81-2.79,1.94-5.38,3.91-7.55c4.28-4.7,10.7-3.88,13.32,1.79c2.19,4.74,1.54,9.69,0.59,14.59c-1.77,9.13-4.9,17.91-7,26.96
		c-0.9,3.87-1.93,7.71-3.5,11.4c-3.12,7.32-6.73,14.51-7.6,22.56c-0.58,5.39-0.97,10.8-2.17,16.09c-3.32,14.57-4.97,29.46-8.7,43.95
		c-1.63,6.34-3.3,12.7-6.12,18.6c-3.09,6.48-6.81,12.66-11.24,18.35c-3.52,4.52-5.68,9.44-5.54,15.35
		c0.18,7.35,0.02,14.71,1.6,21.95c0,0.49,0.01,0.97,0.01,1.46c-0.2,0.05-0.4,0.1-0.61,0.16c-1.74-2.5-1.8-5.56-2.06-8.31
		c-0.49-5.22-0.77-10.5-0.59-15.78c0.17-4.98,1.26-9.48,4.29-13.66c4.71-6.48,9.33-13.03,12.67-20.41
		c3.25-7.16,5.32-14.68,7.03-22.26c2.01-8.89,3.27-17.94,4.99-26.89c1.41-7.37,3.39-14.65,4.01-22.14
		c0.59-7.15,1.87-14.1,4.66-20.74c1.62-3.84,3.31-7.67,4.68-11.6c3.28-9.43,5.16-19.26,8.04-28.82c0.81-2.68,1.72-5.47,1.58-9.07
		c-1.5,2.42-3.26,2.98-5.32,2.62c-1.67-0.29-3.29-0.81-4.82-1.57c-1.97-0.98-2.83-2.52-2.54-4.73c0.3-2.27,0.52-4.55,0.85-7.42
		c-1.63,1.78-2.12,3.47-2.57,5.13c-2.09,7.86-4.64,15.6-7.72,23.09c-3.52,8.57-8.12,16.68-10.9,25.59
		c-0.84,2.68-2.03,5.39-4.13,7.47c-2.43,2.41-5.24,1.96-6.82-1.08c-0.75-1.46-1.1-3.02-1.15-4.69c-0.18-5.85,0.77-11.57,1.73-17.3
		c1.42-8.53,3.81-16.93,3.44-25.71c-0.3-7.05,0.15-14.08,0.97-21.09c0.14-1.16-0.23-2.85-0.01-3.45c0.72-1.88,0.93-3.78,1.15-5.69
		c0.33-2.83,0.49-5.68,0.76-9.06c-2.14,3.51-4.2,3.94-9,3.23c-8.1-1.2-5.25-7.34-5.55-12.56c-1.2,1.49-1.74,2.75-2.11,4.06
		c-1.08,3.81-1.34,7.69-1.54,11.66c-0.42,8.33-1.45,16.63-3.2,24.81c-2.29,10.76-4.38,21.52-4.54,32.59
		c-0.05,3.53-0.48,7.14-2.27,10.34c-1.54,2.76-4.43,2.93-6.45,0.47c-0.83-1-1.1-2.19-1.23-3.44c-0.81-7.71-0.61-15.46-0.87-23.2
		c-0.2-6.03,0.63-12.09-0.49-18.09c-1.57-8.48-1.97-17.07-2.17-25.65c-0.16-6.96,0.19-13.94,0.22-20.91
		c0.01-2.06-0.15-4.14-1.24-6.03c-0.29,2.04-0.18,4.06-0.32,6.06c-0.15,2.11-1.24,3.58-3.41,4.14c-2.82,0.72-5.68,0.75-8.54,0.42
		c-2-0.22-3.22-1.44-3.59-3.41c-0.31-1.63-0.51-3.28-0.79-5.17c-0.58,1.02-0.63,1.92-0.73,2.84c-0.61,5.33-0.47,10.67-0.5,16.02
		c-0.05,7.74,0.63,15.53-0.37,23.22c-1.33,10.12-1.46,20.13,0.17,30.26c1.08,6.69,1.71,13.53,0.7,20.35
		c-0.57,3.85-3.59,5.83-7.2,4.57c-2.45-0.85-4.35-2.43-5.17-4.97c-0.72-2.21-1.34-4.45-1.88-6.7c-1.95-8.04-3.38-16.21-5.94-24.09
		c-1.53-4.7-3.85-9.16-5.18-13.91c-2.7-9.6-5.36-19.21-8.55-28.67c-0.5-1.48-0.81-3.07-2.07-4.37c-0.61,6.77-0.86,7.22-4.78,8.05
		c-2.13,0.45-4.34,0.73-6.44,0.13c-2.3-0.65-3.22-2.67-3.79-4.9c-0.48,4.55-0.18,8.94,0.87,13.25c1.33,5.49,2.85,10.93,4.1,16.43
		c1.89,8.3,2.23,16.89,4.6,25.1c0.81,2.82,1.79,5.61,2.41,8.48c1.56,7.26,1.87,14.69,2.78,22.04c1,8.07,0.68,16.21-0.12,24.29
		c-0.57,5.69-1.13,11.41-3.07,16.86c-1.51,4.25-5.35,5.25-8.78,2.32c-2.36-2.01-3.8-4.62-5.15-7.34c-2.25-4.54-3.37-9.47-5.16-14.17
		C250.05,1076.05,248.36,1071.58,245.22,1067.86L245.22,1067.86z M218.22,1071.74c0.57,0.85,1.11,0.55,1.76,0.24
		c2.85-1.38,5.64-2.87,8.17-4.8c2.39-1.83,2.76-3.12,1.81-6.03c-2.08-6.36-8.12-9.92-13.57-7.99c-2.35,0.83-3.82,3.04-3.71,4.98
		C213.24,1063.58,215.54,1067.74,218.22,1071.74z M323.51,946.12c-3.63-2.93-9.41-1.13-10.68,3.3c-0.96,3.35-0.86,6.7-0.27,10.09
		c0.38,2.23,1.71,3.38,3.87,3.64c2.33,0.28,4.64,0.05,6.9-0.47c1.98-0.46,2.9-1.93,3.16-3.82c0.17-1.22,0.15-2.46,0.22-3.7
		C326.66,951.78,326.44,948.48,323.51,946.12z M272.32,968.64c-0.37-1.26-0.8-2.5-1.27-3.72c-1.22-3.2-3.64-4.87-6.24-4.37
		c-2.85,0.56-5.32,3.53-5.31,6.52c0.01,2.49,0.53,4.91,1.35,7.25c0.92,2.64,1.82,3.09,5.24,2.98
		C272.95,977.09,274.28,975.25,272.32,968.64z M354.66,975.29c1.09,2.93,3.89,2.66,6.21,3.17c1.93,0.42,3.89,0.37,5.33-1.32
		c0.67-0.79,0.78-1.8,0.87-2.83c0.21-2.64-0.2-5.25-0.45-7.85c-0.22-2.31-1.61-4-3.95-4.65c-2.21-0.62-4.07,0.02-5.66,1.69
		c-2.12,2.23-2.85,4.88-2.56,7.88C354.51,972.68,354.19,974.03,354.66,975.29z M396.51,1014.47c0.87,0.31,1.74,0.62,2.64,0.84
		c2.93,0.73,4.86-0.22,5.33-3.12c0.54-3.32,1.3-6.71,0.38-10.09c-1.04-3.83-5.04-4.87-7.95-2.17c-2.96,2.74-2.94,6.46-3.42,9.99
		C393.07,1012.42,394.39,1013.72,396.51,1014.47z M405.59,1013.87c0.31,0.12,0.4-0.18,0.38-0.38c-0.01-0.17-0.15-0.42-0.3-0.48
		c-0.31-0.13-0.31,0.19-0.44,0.45C405.35,1013.59,405.44,1013.81,405.59,1013.87z"/>
	<path class="st3" d="M348.47,983.68c-0.39-0.85-0.39-1.76-0.34-2.67c-0.66-0.1-0.99,0.2-1.04,0.86c-0.03,0.45-0.02,0.89-0.45,1.22
		c-0.49,0.39-2.05-0.26-1.49,0.92c0.55,1.14,1.79,0.72,2.67-0.15C347.96,983.73,348.25,983.74,348.47,983.68z"/>
	<path class="st3" d="M348.26,978.54c0.2-1.54,0.4-3.09,0.61-4.63C347.17,975.25,348.13,976.95,348.26,978.54z"/>
	<path class="st3" d="M348.11,980.98c0.08-0.19,0.15-0.37,0.23-0.56C348.26,980.61,348.18,980.79,348.11,980.98z"/>
	<path class="st2" d="M327.12,1013.79c-2.73-2.04-10.53-2.08-14.03-0.09C317.77,1012.69,322.45,1012.44,327.12,1013.79z"/>
	<path class="st2" d="M272.19,1023c4.01-2.59,8.64-3.08,13.76-3.9C281.53,1018.19,274.19,1020.33,272.19,1023z"/>
	<polygon class="st3" points="245.22,1067.86 245.17,1067.92 245.21,1067.86 	"/>
	<path class="st4" d="M212.68,1058.13c0.56,5.45,2.86,9.61,5.55,13.61c0.57,0.85,1.11,0.55,1.76,0.24c2.85-1.38,5.64-2.87,8.17-4.8
		c2.39-1.83,2.76-3.12,1.81-6.03c-2.08-6.36-8.12-9.92-13.57-7.99C214.04,1053.99,212.56,1056.2,212.68,1058.13z"/>
	<path class="st4" d="M266.09,977.31c6.86-0.22,8.19-2.06,6.24-8.67c-0.37-1.26-0.8-2.5-1.27-3.72c-1.22-3.2-3.64-4.87-6.24-4.37
		c-2.85,0.56-5.32,3.53-5.31,6.52c0.01,2.49,0.53,4.91,1.35,7.25C261.77,976.97,262.67,977.42,266.09,977.31z"/>
	<path class="st4" d="M354.45,971.39c0.06,1.29-0.26,2.63,0.21,3.9c1.09,2.93,3.89,2.66,6.21,3.17c1.93,0.42,3.89,0.37,5.33-1.32
		c0.67-0.79,0.78-1.8,0.87-2.83c0.21-2.64-0.2-5.25-0.45-7.85c-0.22-2.31-1.61-4-3.95-4.65c-2.21-0.62-4.07,0.02-5.66,1.69
		C354.9,965.74,354.16,968.39,354.45,971.39z"/>
	<path class="st4" d="M393.49,1009.92c-0.43,2.5,0.9,3.8,3.02,4.55c0.87,0.31,1.74,0.62,2.64,0.84c2.93,0.73,4.86-0.22,5.33-3.12
		c0.54-3.32,1.3-6.71,0.38-10.09c-1.04-3.83-5.04-4.87-7.95-2.17C393.96,1002.67,393.98,1006.39,393.49,1009.92z"/>
	<path class="st3" d="M405.24,1013.46c0.11,0.13,0.2,0.35,0.36,0.41c0.31,0.12,0.4-0.18,0.38-0.38c-0.01-0.17-0.15-0.42-0.3-0.48
		C405.37,1012.88,405.37,1013.21,405.24,1013.46z"/>
</g>
<g>
	<path class="st2" d="M628.84,1183.48c-7.89,0.2-15.21-2.27-22.48-4.97C613.82,1180.31,621.14,1182.8,628.84,1183.48z"/>
	<path class="st3" d="M674.41,1212.96c-21.61,0-43.23,0-64.84,0c-1.08,0-2.2,0.15-3.19-0.48c0.02-0.93,0-1.87,0.06-2.8
		c0.55-8.43,0.86-16.86-0.59-25.23c-0.49-2.84-1.1-5.8-3.43-7.77c-5.04-4.27-9.15-9.33-13.17-14.52
		c-7.46-9.62-15.39-18.86-23.99-27.49c-6.34-6.36-10.08-13.94-11.54-22.78c-0.86-5.19-2.85-10.02-5.22-14.72
		c-1.88-3.73-4.87-6.66-6.91-10.25c-2.55-4.49-4.35-9.32-6.58-13.95c-1.69-3.51-3.62-6.93-4.75-10.69
		c-1.31-4.36-0.16-6.89,3.99-8.63c3.27-1.37,6.69-1.66,10.11-0.81c8.01,1.99,13.31,7.48,17.71,14.05
		c4.28,6.38,6.53,13.62,8.71,20.88c1.36,4.53,3.36,8.72,6.35,12.41c4.01,4.95,10.17,4.85,13.85-0.33c1.17-1.65,2.1-3.45,2.71-5.43
		c1.56-5.02,2.58-10.14,3.05-15.35c0.69-7.62,1.48-15.3,0.11-22.88c-1.2-6.67-3.17-13.2-5.25-19.67c-2.28-7.1-5.53-13.89-6.36-21.44
		c-0.85-7.77-2.39-15.41-4.56-22.93c-2.13-7.38-3.55-14.88-2.9-22.65c0.36-4.32,2.57-7.11,6.39-7.87c3.41-0.68,6.33,0.95,8.31,4.65
		c1.45,2.7,2.36,5.6,3.24,8.52c3.31,10.98,6.21,22.08,10.45,32.76c1.29,3.26,2.71,6.47,3.61,9.88c2.26,8.61,4.57,17.2,6.89,25.79
		c0.45,1.66,0.95,3.31,1.86,4.79c1.51,2.46,4.7,4.06,7.15,3.5c2.92-0.67,3.56-3.01,3.81-5.52c0.85-8.46-0.09-16.84-1.41-25.18
		c-0.96-6.05-1.64-12.08-0.32-18.15c1.21-5.58,1.49-11.29,1.37-16.93c-0.17-7.64-0.37-15.27-0.17-22.9
		c0.11-4.04,0.45-8.1,2.32-11.85c2.17-4.36,4.95-5.97,9.57-5.35c4,0.54,6.03,2.62,6.92,7.39c0.91,4.88,0.43,9.82,0.38,14.73
		c-0.12,11.72-0.12,23.43,1.8,35.04c0.62,3.77,1.25,7.55,0.98,11.41c-0.35,4.98-0.8,9.96-1.03,14.96
		c-0.28,6.25-0.05,12.47,1.94,18.51c0.64,1.93,2.04,2.98,3.84,3.27c1.97,0.31,3.13-1.11,3.93-2.73c0.31-0.62,0.56-1.28,0.74-1.95
		c0.93-3.49,1.14-7.06,1.4-10.65c0.43-6.07,0.57-12.16,1.9-18.14c2.88-12.88,5.36-25.81,5.65-39.09c0.09-4.19,0.67-8.42,2.69-12.26
		c1.8-3.43,4.46-4.66,8.85-4.02c3.47,0.5,5.66,2.67,6.36,6.24c0.73,3.73,0.52,7.47,0.14,11.21c-1.23,12.03-3.21,24-2.58,36.17
		c0.17,3.28-0.26,6.55-0.79,9.79c-1.37,8.47-3.53,16.81-4.09,25.41c-0.24,3.67-0.1,7.34,1.06,10.89c0.46,1.43,1.15,2.74,2.83,3.14
		c1.7,0.41,2.71-0.71,3.51-1.81c1.29-1.75,2.47-3.61,3.46-5.54c1.87-3.61,3.18-7.45,4.28-11.38c1.44-5.15,4.72-9.48,6.8-14.34
		c3.54-8.25,6.25-16.82,8.67-25.46c0.77-2.76,1.96-5.23,4.15-7.19c2.92-2.6,7.16-2.07,9.32,1.19c1.97,2.97,2.28,6.25,1.85,9.66
		c-0.83,6.61-2.7,12.97-4.49,19.36c-2.74,9.75-4.71,19.73-9.01,29.01c-2.23,4.82-4.33,9.78-5.03,15.06
		c-1.32,9.97-2.71,19.91-5.61,29.58c-0.4,1.32-0.99,1.72-2.07,1.58c-3.47-0.47-6.98-0.82-10.38-1.63
		c-10.14-2.42-19.67-6.34-28.74-11.57c-9.46-5.44-18.12-11.83-25.87-19.49c-0.55-0.55-0.97-1.41-2.13-1.41
		c0.17,1.06,0.94,1.53,1.5,2.08c6.31,6.19,13.18,11.7,20.68,16.37c8.36,5.21,17.1,9.69,26.54,12.65c5.97,1.87,12.03,3.28,18.29,3.73
		c0.71,0.05,1.7-0.2,1.49,1.14c-1.36,8.71-1.54,17.56-3.14,26.26c-3.18,17.34-9.47,33.13-22.31,45.72c-2.19,2.14-2.85,4.8-2.94,7.65
		C672.34,1195.15,672.6,1204.11,674.41,1212.96z M637.69,1151.49c0.72-3.82,0.27-7.52,0.07-11.25c-0.62-11.47-3.04-22.52-7.17-33.23
		c-3.49-9.06-8.62-16.86-16.61-22.64c-2.24-1.62-4.77-2.78-6.93-4.59c3.62,0.23,6.97,1.43,10.27,2.69c3.41,1.31,6.68,2.97,9.99,4.51
		c3.13,1.46,5.92,3.61,9.22,4.73c-7.79-6.67-32.23-15.72-38.35-14.27c4.09,1.63,8.09,3.03,11.73,5.34
		c4.79,3.03,9.18,6.43,12.57,10.99c6.41,8.63,9.62,18.64,12.05,28.89c2.05,8.67,2.95,17.53,2.55,26.47
		C637.05,1149.92,636.96,1150.72,637.69,1151.49z M628.84,1183.48c-7.7-0.68-15.02-3.17-22.48-4.97
		C613.63,1181.21,620.95,1183.68,628.84,1183.48z M548.95,1084.71c5.68-0.13,14.73-4.36,16.25-7.58
		C560.65,1081.5,554.49,1082.43,548.95,1084.71z M600.3,1055.46c4.42-3.24,9.69-4.16,14.79-5.54
		C609.59,1050.34,604.4,1051.58,600.3,1055.46z M634.88,1047.76c2.16,0.21,4.23-0.58,6.4-0.4c2.17,0.18,4.28,0.69,6.41,1.03
		C643.52,1046.09,639.22,1046.22,634.88,1047.76z M718.42,1030.35c-2.01-3.35-7.72-5.79-11.23-4.8
		C711.68,1026.05,715.33,1027.52,718.42,1030.35z M643.98,977.25c-3.94-1.46-9.86-1.45-11.77,0.13
		C636.14,976.16,640.06,977.52,643.98,977.25z M698.39,1045.23c-0.03,0.19-0.07,0.39-0.1,0.58c2.22,0.5,4.45,1,6.67,1.5
		C702.91,1045.98,700.75,1045.21,698.39,1045.23z M590.27,1020.19c1.45-0.98,3.2-1.39,5.19-2.65
		C592.79,1017.6,591.48,1018.85,590.27,1020.19z"/>
	<path class="st2" d="M674.41,1212.96c-1.81-8.85-2.07-17.81-1.8-26.8c0.08-2.85,0.75-5.5,2.94-7.65
		c12.84-12.59,19.13-28.38,22.31-45.72c1.59-8.69,1.78-17.54,3.14-26.26c0.21-1.34-0.78-1.09-1.49-1.14
		c-6.26-0.45-12.32-1.86-18.29-3.73c-9.45-2.96-18.18-7.44-26.54-12.65c-7.5-4.67-14.37-10.18-20.68-16.37
		c-0.56-0.55-1.33-1.03-1.5-2.08c1.16,0,1.57,0.86,2.13,1.41c7.75,7.66,16.41,14.05,25.87,19.49c9.07,5.22,18.6,9.15,28.74,11.57
		c3.4,0.81,6.91,1.15,10.38,1.63c1.08,0.15,1.68-0.25,2.07-1.58c2.9-9.68,4.29-19.61,5.61-29.58c0.7-5.28,2.8-10.24,5.03-15.06
		c4.3-9.28,6.26-19.26,9.01-29.01c1.8-6.39,3.66-12.75,4.49-19.36c0.43-3.41,0.12-6.69-1.85-9.66c-2.16-3.26-6.4-3.8-9.32-1.19
		c-2.19,1.95-3.37,4.42-4.15,7.19c-2.42,8.65-5.13,17.21-8.67,25.46c-2.09,4.86-5.36,9.19-6.8,14.34c-1.1,3.93-2.41,7.76-4.28,11.38
		c-1,1.93-2.17,3.79-3.46,5.54c-0.81,1.09-1.81,2.21-3.51,1.81c-1.67-0.4-2.36-1.71-2.83-3.14c-1.15-3.54-1.3-7.22-1.06-10.89
		c0.56-8.59,2.72-16.94,4.09-25.41c0.53-3.24,0.96-6.51,0.79-9.79c-0.63-12.17,1.35-24.14,2.58-36.17
		c0.38-3.74,0.59-7.48-0.14-11.21c-0.7-3.57-2.88-5.74-6.36-6.24c-4.39-0.64-7.05,0.59-8.85,4.02c-2.02,3.84-2.6,8.07-2.69,12.26
		c-0.3,13.27-2.77,26.21-5.65,39.09c-1.34,5.98-1.47,12.08-1.9,18.14c-0.25,3.59-0.46,7.16-1.4,10.65
		c-0.18,0.67-0.43,1.33-0.74,1.95c-0.81,1.62-1.96,3.05-3.93,2.73c-1.8-0.29-3.2-1.34-3.84-3.27c-1.98-6.04-2.22-12.26-1.94-18.51
		c0.22-4.99,0.67-9.97,1.03-14.96c0.27-3.85-0.36-7.64-0.98-11.41c-1.92-11.62-1.92-23.32-1.8-35.04c0.05-4.91,0.53-9.85-0.38-14.73
		c-0.89-4.77-2.92-6.85-6.92-7.39c-4.62-0.62-7.4,0.99-9.57,5.35c-1.87,3.75-2.21,7.82-2.32,11.85c-0.2,7.63,0,15.27,0.17,22.9
		c0.13,5.64-0.15,11.34-1.37,16.93c-1.32,6.07-0.64,12.09,0.32,18.15c1.32,8.34,2.26,16.72,1.41,25.18
		c-0.25,2.51-0.89,4.86-3.81,5.52c-2.46,0.56-5.64-1.04-7.15-3.5c-0.91-1.48-1.41-3.13-1.86-4.79c-2.31-8.59-4.62-17.19-6.89-25.79
		c-0.9-3.41-2.32-6.63-3.61-9.88c-4.24-10.68-7.14-21.79-10.45-32.76c-0.88-2.92-1.8-5.82-3.24-8.52c-1.99-3.7-4.9-5.34-8.31-4.65
		c-3.82,0.77-6.03,3.55-6.39,7.87c-0.65,7.76,0.77,15.27,2.9,22.65c2.17,7.53,3.7,15.16,4.56,22.93c0.83,7.55,4.08,14.34,6.36,21.44
		c2.08,6.47,4.05,13,5.25,19.67c1.37,7.58,0.58,15.26-0.11,22.88c-0.47,5.22-1.49,10.34-3.05,15.35c-0.61,1.97-1.54,3.78-2.71,5.43
		c-3.68,5.18-9.84,5.28-13.85,0.33c-2.99-3.69-5-7.88-6.35-12.41c-2.17-7.26-4.43-14.5-8.71-20.88c-4.4-6.57-9.7-12.06-17.71-14.05
		c-3.42-0.85-6.84-0.56-10.11,0.81c-4.15,1.74-5.3,4.27-3.99,8.63c1.13,3.76,3.06,7.18,4.75,10.69c2.23,4.63,4.03,9.47,6.58,13.95
		c2.04,3.59,5.04,6.52,6.91,10.25c2.37,4.71,4.36,9.54,5.22,14.72c1.46,8.84,5.2,16.42,11.54,22.78
		c8.6,8.63,16.53,17.87,23.99,27.49c4.03,5.19,8.13,10.25,13.17,14.52c2.32,1.97,2.93,4.93,3.43,7.77
		c1.46,8.37,1.14,16.8,0.59,25.23c-0.06,0.93-0.04,1.87-0.06,2.8c-0.2,0.6-0.38,1.31-1.22,1.11c-0.67-0.17-0.6-0.82-0.57-1.37
		c0.17-3.82,0.4-7.65,0.51-11.47c0.16-5.55,0.02-11.09-1.03-16.57c-0.56-2.91-1.75-5.35-4.14-7.35
		c-5.53-4.64-9.84-10.45-14.19-16.15c-6.92-9.08-14.66-17.41-22.51-25.65c-5.82-6.11-9.46-13.26-10.94-21.56
		c-1.49-8.37-4.77-15.95-10.21-22.57c-1.89-2.3-3.23-4.98-4.35-7.73c-2.74-6.72-6.53-12.97-8.87-19.86
		c-2.43-7.15,0.65-10.37,7.08-12.02c7.78-1.99,14.46,0.74,20.22,5.98c7.64,6.95,11.99,15.82,14.89,25.56
		c1.62,5.45,3.28,10.87,6.88,15.52c5.13,6.64,10.25,3.59,12.91-1.61c2.05-4.02,2.84-8.41,3.55-12.81
		c1.17-7.35,1.47-14.76,1.39-22.19c-0.06-6.02-2.14-11.64-3.69-17.34c-1.46-5.39-3.04-10.75-5.33-15.92
		c-1.59-3.59-2.45-7.56-2.89-11.51c-1.2-10.91-4.1-21.46-6.67-32.08c-1.32-5.44-1.66-10.97-0.9-16.52
		c0.97-7.01,7.6-10.76,13.41-7.63c2.53,1.36,3.92,3.72,5.06,6.26c2.63,5.88,3.81,12.21,5.8,18.29c2.6,7.91,4.7,15.98,8.02,23.67
		c3.67,8.5,5.2,17.65,7.72,26.51c0.94,3.3,1.9,6.59,2.85,9.89c0.34,1.16,1,2.11,1.9,2.89c1.34,1.17,2.8,2.13,4.66,1.37
		c1.69-0.7,2.01-2.29,2.13-3.88c0.69-8.94-0.23-17.79-1.72-26.59c-1-5.91-1.08-11.82,0.08-17.71c1.43-7.24,1.24-14.56,1.1-21.88
		c-0.14-6.95-0.4-13.91,0.26-20.85c0.28-2.98,0.91-5.84,2.24-8.55c2.58-5.27,6.14-7.17,11.75-6.21c4.63,0.79,7.36,4.12,8.03,9.62
		c0.74,6.16,0.23,12.33,0.13,18.49c-0.19,10.8,0.41,21.55,2.2,32.21c1.02,6.09,0.66,12.14,0.15,18.21
		c-0.63,7.56-1.09,15.12,0.76,22.61c0.07,0.3,0.17,0.6,0.24,0.91c0.39,1.59,1.02,3.14,2.89,3.18c1.89,0.04,2.09-1.79,2.63-3.09
		c0.89-2.12,1.19-4.41,1.22-6.66c0.15-12.18,2.52-24.03,4.96-35.89c1.68-8.2,2.68-16.49,2.88-24.87c0.09-3.76,0.61-7.48,1.81-11.06
		c2.65-7.97,8.83-8.72,15.21-6.02c2.69,1.14,3.7,3.72,4.27,6.38c0.78,3.63,0.53,7.3,0.21,10.97c-0.78,8.87-2.34,17.66-2.61,26.57
		c-0.06,1.79-0.08,3.6,0.02,5.39c0.52,9.15-1.36,18.03-3.07,26.92c-1.26,6.53-2.44,13.07-1.65,19.76c0.24,1.98,0.19,4.72,2.29,5.22
		c2.13,0.51,2.9-2.2,3.87-3.77c1.78-2.85,3.24-5.92,4.11-9.15c1.6-5.94,4.26-11.38,7.13-16.76c3.51-6.58,5.43-13.78,7.77-20.8
		c0.81-2.44,1.43-4.94,2.2-7.4c0.78-2.49,1.93-4.76,3.85-6.61c4.19-4.03,10.25-3.1,12.97,2.05c2.08,3.94,1.88,8.15,1.18,12.36
		c-1.11,6.71-3.25,13.17-4.96,19.74c-2.34,8.99-4.45,18.05-8.26,26.57c-2.59,5.8-5,11.7-5.59,18.03c-0.59,6.4-1.31,12.79-3.17,18.9
		c-3.34,10.93-3.39,22.29-5.11,33.43c-2.17,14.09-6.11,27.58-14.23,39.54c-2.46,3.63-5.3,6.96-8.41,10.03
		c-2.11,2.08-3.01,4.47-3.13,7.3c-0.38,8.69,0.02,17.32,1.75,25.86c0.11,0.56,0.33,1.13-0.31,1.42
		C675.18,1213.82,674.73,1213.46,674.41,1212.96z"/>
	<path class="st2" d="M637.69,1151.49c-0.73-0.77-0.63-1.57-0.6-2.35c0.4-8.94-0.5-17.8-2.55-26.47
		c-2.43-10.25-5.64-20.27-12.05-28.89c-3.39-4.57-7.78-7.96-12.57-10.99c-3.65-2.31-7.64-3.71-11.73-5.34
		c6.12-1.44,30.56,7.6,38.35,14.27c-3.3-1.12-6.09-3.27-9.22-4.73c-3.31-1.54-6.59-3.2-9.99-4.51c-3.29-1.26-6.65-2.47-10.27-2.69
		c2.15,1.81,4.68,2.97,6.93,4.59c7.99,5.78,13.12,13.58,16.61,22.64c4.12,10.71,6.55,21.76,7.17,33.23
		C637.96,1143.97,638.41,1147.67,637.69,1151.49z"/>
	<path class="st2" d="M548.95,1084.71c5.53-2.27,11.69-3.21,16.25-7.58C563.68,1080.35,554.63,1084.58,548.95,1084.71z"/>
	<path class="st2" d="M600.3,1055.46c4.11-3.88,9.29-5.12,14.79-5.54C609.99,1051.3,604.71,1052.22,600.3,1055.46z"/>
	<path class="st2" d="M634.88,1047.76c4.34-1.54,8.64-1.66,12.81,0.63c-2.13-0.34-4.24-0.85-6.41-1.03
		C639.11,1047.17,637.04,1047.97,634.88,1047.76z"/>
	<path class="st2" d="M718.42,1030.35c-3.09-2.83-6.74-4.31-11.23-4.8C710.7,1024.56,716.41,1027,718.42,1030.35z"/>
	<path class="st2" d="M643.98,977.25c-3.92,0.27-7.85-1.09-11.77,0.13C634.12,975.8,640.04,975.8,643.98,977.25z"/>
	<path class="st2" d="M698.39,1045.23c2.35-0.02,4.52,0.75,6.56,2.08c-2.22-0.5-4.45-1-6.67-1.5
		C698.32,1045.62,698.36,1045.42,698.39,1045.23z"/>
	<path class="st2" d="M590.27,1020.19c1.21-1.35,2.52-2.59,5.19-2.65C593.47,1018.8,591.72,1019.21,590.27,1020.19z"/>
	<path class="st2" d="M884.81,1183.48c7.89,0.2,15.21-2.27,22.48-4.97C899.83,1180.31,892.51,1182.8,884.81,1183.48z"/>
	<path class="st3" d="M841.04,1186.16c-0.08-2.85-0.75-5.5-2.94-7.65c-12.84-12.59-19.13-28.38-22.31-45.72
		c-1.59-8.69-1.78-17.54-3.14-26.26c-0.21-1.34,0.78-1.09,1.49-1.14c6.26-0.45,12.32-1.86,18.29-3.73
		c9.45-2.96,18.18-7.44,26.54-12.65c7.5-4.67,14.37-10.18,20.68-16.37c0.56-0.55,1.33-1.03,1.5-2.08c-1.16,0-1.57,0.86-2.13,1.41
		c-7.75,7.66-16.41,14.05-25.87,19.49c-9.07,5.22-18.6,9.15-28.74,11.57c-3.4,0.81-6.91,1.15-10.38,1.63
		c-1.08,0.15-1.68-0.25-2.07-1.58c-2.9-9.68-4.29-19.61-5.61-29.58c-0.7-5.28-2.8-10.24-5.03-15.06c-4.3-9.28-6.26-19.26-9.01-29.01
		c-1.8-6.39-3.66-12.75-4.49-19.36c-0.43-3.41-0.12-6.69,1.85-9.66c2.16-3.26,6.4-3.8,9.32-1.19c2.19,1.95,3.37,4.42,4.15,7.19
		c2.42,8.65,5.13,17.21,8.67,25.46c2.09,4.86,5.36,9.19,6.8,14.34c1.1,3.93,2.41,7.76,4.28,11.38c1,1.93,2.17,3.79,3.46,5.54
		c0.81,1.09,1.81,2.21,3.51,1.81c1.67-0.4,2.36-1.71,2.83-3.14c1.15-3.54,1.3-7.22,1.06-10.89c-0.56-8.59-2.72-16.94-4.09-25.41
		c-0.53-3.24-0.96-6.51-0.79-9.79c0.63-12.17-1.35-24.14-2.58-36.17c-0.38-3.74-0.59-7.48,0.14-11.21c0.7-3.57,2.88-5.74,6.36-6.24
		c4.39-0.64,7.05,0.59,8.85,4.02c2.02,3.84,2.6,8.07,2.69,12.26c0.3,13.27,2.77,26.21,5.65,39.09c1.34,5.98,1.47,12.08,1.9,18.14
		c0.25,3.59,0.46,7.16,1.4,10.65c0.18,0.67,0.43,1.33,0.74,1.95c0.81,1.62,1.96,3.05,3.93,2.73c1.8-0.29,3.2-1.34,3.84-3.27
		c1.98-6.04,2.22-12.26,1.94-18.51c-0.22-4.99-0.67-9.97-1.03-14.96c-0.27-3.85,0.36-7.64,0.98-11.41
		c1.92-11.62,1.92-23.32,1.8-35.04c-0.05-4.91-0.53-9.85,0.38-14.73c0.89-4.77,2.92-6.85,6.92-7.39c4.62-0.62,7.4,0.99,9.57,5.35
		c1.87,3.75,2.21,7.82,2.32,11.85c0.2,7.63,0,15.27-0.17,22.9c-0.13,5.64,0.15,11.34,1.37,16.93c1.32,6.07,0.64,12.09-0.32,18.15
		c-1.32,8.34-2.26,16.72-1.41,25.18c0.25,2.51,0.89,4.86,3.81,5.52c2.46,0.56,5.64-1.04,7.15-3.5c0.91-1.48,1.41-3.13,1.86-4.79
		c2.31-8.59,4.62-17.19,6.89-25.79c0.9-3.41,2.32-6.63,3.61-9.88c4.24-10.68,7.14-21.79,10.45-32.76c0.88-2.92,1.8-5.82,3.24-8.52
		c1.99-3.7,4.9-5.34,8.31-4.65c3.82,0.77,6.03,3.55,6.39,7.87c0.65,7.76-0.77,15.27-2.9,22.65c-2.17,7.53-3.7,15.16-4.56,22.93
		c-0.83,7.55-4.08,14.34-6.36,21.44c-2.08,6.47-4.05,13-5.25,19.67c-1.37,7.58-0.58,15.26,0.11,22.88
		c0.47,5.22,1.49,10.34,3.05,15.35c0.61,1.97,1.54,3.78,2.71,5.43c3.68,5.18,9.84,5.28,13.85,0.33c2.99-3.69,5-7.88,6.35-12.41
		c2.17-7.26,4.43-14.5,8.71-20.88c4.4-6.57,9.7-12.06,17.71-14.05c3.42-0.85,6.84-0.56,10.11,0.81c4.15,1.74,5.3,4.27,3.99,8.63
		c-1.13,3.76-3.06,7.18-4.75,10.69c-2.23,4.63-4.03,9.47-6.58,13.95c-2.04,3.59-5.04,6.52-6.91,10.25
		c-2.37,4.71-4.36,9.54-5.22,14.72c-1.46,8.84-5.2,16.42-11.54,22.78c-8.6,8.63-16.53,17.87-23.99,27.49
		c-4.03,5.19-8.13,10.25-13.17,14.52c-2.32,1.97-2.93,4.93-3.43,7.77c-1.46,8.37-1.14,16.8-0.59,25.23c0.06,0.93,0.04,1.87,0.06,2.8
		c-0.99,0.63-2.1,0.48-3.19,0.48c-21.61,0-43.23,0-64.84,0C841.05,1204.11,841.31,1195.15,841.04,1186.16z M876.56,1149.15
		c-0.4-8.94,0.5-17.8,2.55-26.47c2.43-10.25,5.64-20.27,12.05-28.89c3.39-4.57,7.78-7.96,12.57-10.99
		c3.65-2.31,7.64-3.71,11.73-5.34c-6.12-1.44-30.56,7.6-38.35,14.27c3.3-1.12,6.09-3.27,9.22-4.73c3.31-1.54,6.59-3.2,9.99-4.51
		c3.29-1.26,6.65-2.47,10.27-2.69c-2.15,1.81-4.68,2.97-6.93,4.59c-7.99,5.78-13.12,13.58-16.61,22.64
		c-4.12,10.71-6.55,21.76-7.17,33.23c-0.2,3.73-0.65,7.43,0.07,11.25C876.69,1150.72,876.6,1149.92,876.56,1149.15z M907.29,1178.52
		c-7.46,1.79-14.78,4.29-22.48,4.97C892.7,1183.68,900.02,1181.21,907.29,1178.52z M948.45,1077.12c1.52,3.23,10.57,7.45,16.25,7.58
		C959.16,1082.43,953,1081.5,948.45,1077.12z M898.56,1049.92c5.1,1.38,10.38,2.31,14.79,5.54
		C909.25,1051.58,904.06,1050.34,898.56,1049.92z M865.96,1048.39c2.13-0.34,4.24-0.85,6.41-1.03c2.17-0.18,4.24,0.61,6.4,0.4
		C874.43,1046.22,870.13,1046.09,865.96,1048.39z M806.46,1025.55c-3.51-0.99-9.22,1.45-11.23,4.8
		C798.32,1027.52,801.98,1026.05,806.46,1025.55z M881.44,977.38c-1.9-1.58-7.83-1.58-11.77-0.13
		C873.59,977.52,877.52,976.16,881.44,977.38z M808.69,1047.31c2.22-0.5,4.45-1,6.67-1.5c-0.03-0.19-0.07-0.39-0.1-0.58
		C812.9,1045.21,810.74,1045.98,808.69,1047.31z M918.19,1017.54c1.99,1.26,3.74,1.67,5.19,2.65
		C922.17,1018.85,920.86,1017.6,918.19,1017.54z"/>
	<path class="st2" d="M839.24,1212.96c1.81-8.85,2.07-17.81,1.8-26.8c-0.08-2.85-0.75-5.5-2.94-7.65
		c-12.84-12.59-19.13-28.38-22.31-45.72c-1.59-8.69-1.78-17.54-3.14-26.26c-0.21-1.34,0.78-1.09,1.49-1.14
		c6.26-0.45,12.32-1.86,18.29-3.73c9.45-2.96,18.18-7.44,26.54-12.65c7.5-4.67,14.37-10.18,20.68-16.37
		c0.56-0.55,1.33-1.03,1.5-2.08c-1.16,0-1.57,0.86-2.13,1.41c-7.75,7.66-16.41,14.05-25.87,19.49c-9.07,5.22-18.6,9.15-28.74,11.57
		c-3.4,0.81-6.91,1.15-10.38,1.63c-1.08,0.15-1.68-0.25-2.07-1.58c-2.9-9.68-4.29-19.61-5.61-29.58c-0.7-5.28-2.8-10.24-5.03-15.06
		c-4.3-9.28-6.26-19.26-9.01-29.01c-1.8-6.39-3.66-12.75-4.49-19.36c-0.43-3.41-0.12-6.69,1.85-9.66c2.16-3.26,6.4-3.8,9.32-1.19
		c2.19,1.95,3.37,4.42,4.15,7.19c2.42,8.65,5.13,17.21,8.67,25.46c2.09,4.86,5.36,9.19,6.8,14.34c1.1,3.93,2.41,7.76,4.28,11.38
		c1,1.93,2.17,3.79,3.46,5.54c0.81,1.09,1.81,2.21,3.51,1.81c1.67-0.4,2.36-1.71,2.83-3.14c1.15-3.54,1.3-7.22,1.06-10.89
		c-0.56-8.59-2.72-16.94-4.09-25.41c-0.53-3.24-0.96-6.51-0.79-9.79c0.63-12.17-1.35-24.14-2.58-36.17
		c-0.38-3.74-0.59-7.48,0.14-11.21c0.7-3.57,2.88-5.74,6.36-6.24c4.39-0.64,7.05,0.59,8.85,4.02c2.02,3.84,2.6,8.07,2.69,12.26
		c0.3,13.27,2.77,26.21,5.65,39.09c1.34,5.98,1.47,12.08,1.9,18.14c0.25,3.59,0.46,7.16,1.4,10.65c0.18,0.67,0.43,1.33,0.74,1.95
		c0.81,1.62,1.96,3.05,3.93,2.73c1.8-0.29,3.2-1.34,3.84-3.27c1.98-6.04,2.22-12.26,1.94-18.51c-0.22-4.99-0.67-9.97-1.03-14.96
		c-0.27-3.85,0.36-7.64,0.98-11.41c1.92-11.62,1.92-23.32,1.8-35.04c-0.05-4.91-0.53-9.85,0.38-14.73c0.89-4.77,2.92-6.85,6.92-7.39
		c4.62-0.62,7.4,0.99,9.57,5.35c1.87,3.75,2.21,7.82,2.32,11.85c0.2,7.63,0,15.27-0.17,22.9c-0.13,5.64,0.15,11.34,1.37,16.93
		c1.32,6.07,0.64,12.09-0.32,18.15c-1.32,8.34-2.26,16.72-1.41,25.18c0.25,2.51,0.89,4.86,3.81,5.52c2.46,0.56,5.64-1.04,7.15-3.5
		c0.91-1.48,1.41-3.13,1.86-4.79c2.31-8.59,4.62-17.19,6.89-25.79c0.9-3.41,2.32-6.63,3.61-9.88c4.24-10.68,7.14-21.79,10.45-32.76
		c0.88-2.92,1.8-5.82,3.24-8.52c1.99-3.7,4.9-5.34,8.31-4.65c3.82,0.77,6.03,3.55,6.39,7.87c0.65,7.76-0.77,15.27-2.9,22.65
		c-2.17,7.53-3.7,15.16-4.56,22.93c-0.83,7.55-4.08,14.34-6.36,21.44c-2.08,6.47-4.05,13-5.25,19.67
		c-1.37,7.58-0.58,15.26,0.11,22.88c0.47,5.22,1.49,10.34,3.05,15.35c0.61,1.97,1.54,3.78,2.71,5.43c3.68,5.18,9.84,5.28,13.85,0.33
		c2.99-3.69,5-7.88,6.35-12.41c2.17-7.26,4.43-14.5,8.71-20.88c4.4-6.57,9.7-12.06,17.71-14.05c3.42-0.85,6.84-0.56,10.11,0.81
		c4.15,1.74,5.3,4.27,3.99,8.63c-1.13,3.76-3.06,7.18-4.75,10.69c-2.23,4.63-4.03,9.47-6.58,13.95c-2.04,3.59-5.04,6.52-6.91,10.25
		c-2.37,4.71-4.36,9.54-5.22,14.72c-1.46,8.84-5.2,16.42-11.54,22.78c-8.6,8.63-16.53,17.87-23.99,27.49
		c-4.03,5.19-8.13,10.25-13.17,14.52c-2.32,1.97-2.93,4.93-3.43,7.77c-1.46,8.37-1.14,16.8-0.59,25.23c0.06,0.93,0.04,1.87,0.06,2.8
		c0.2,0.6,0.38,1.31,1.22,1.11c0.67-0.17,0.6-0.82,0.57-1.37c-0.17-3.82-0.4-7.65-0.51-11.47c-0.16-5.55-0.02-11.09,1.03-16.57
		c0.56-2.91,1.75-5.35,4.14-7.35c5.53-4.64,9.84-10.45,14.19-16.15c6.92-9.08,14.66-17.41,22.51-25.65
		c5.82-6.11,9.46-13.26,10.94-21.56c1.49-8.37,4.77-15.95,10.21-22.57c1.89-2.3,3.23-4.98,4.35-7.73
		c2.74-6.72,6.53-12.97,8.87-19.86c2.43-7.15-0.65-10.37-7.08-12.02c-7.78-1.99-14.46,0.74-20.22,5.98
		c-7.64,6.95-11.99,15.82-14.89,25.56c-1.62,5.45-3.28,10.87-6.88,15.52c-5.13,6.64-10.25,3.59-12.91-1.61
		c-2.05-4.02-2.84-8.41-3.55-12.81c-1.17-7.35-1.47-14.76-1.39-22.19c0.06-6.02,2.14-11.64,3.69-17.34
		c1.46-5.39,3.04-10.75,5.33-15.92c1.59-3.59,2.45-7.56,2.89-11.51c1.2-10.91,4.1-21.46,6.67-32.08c1.32-5.44,1.66-10.97,0.9-16.52
		c-0.97-7.01-7.6-10.76-13.41-7.63c-2.53,1.36-3.92,3.72-5.06,6.26c-2.63,5.88-3.81,12.21-5.8,18.29c-2.6,7.91-4.7,15.98-8.02,23.67
		c-3.67,8.5-5.2,17.65-7.72,26.51c-0.94,3.3-1.9,6.59-2.85,9.89c-0.34,1.16-1,2.11-1.9,2.89c-1.34,1.17-2.8,2.13-4.66,1.37
		c-1.69-0.7-2.01-2.29-2.13-3.88c-0.69-8.94,0.23-17.79,1.72-26.59c1-5.91,1.08-11.82-0.08-17.71c-1.43-7.24-1.24-14.56-1.1-21.88
		c0.14-6.95,0.4-13.91-0.26-20.85c-0.28-2.98-0.91-5.84-2.24-8.55c-2.58-5.27-6.14-7.17-11.75-6.21c-4.63,0.79-7.36,4.12-8.03,9.62
		c-0.74,6.16-0.23,12.33-0.13,18.49c0.19,10.8-0.41,21.55-2.2,32.21c-1.02,6.09-0.66,12.14-0.15,18.21
		c0.63,7.56,1.09,15.12-0.76,22.61c-0.07,0.3-0.17,0.6-0.24,0.91c-0.39,1.59-1.02,3.14-2.89,3.18c-1.89,0.04-2.09-1.79-2.63-3.09
		c-0.89-2.12-1.19-4.41-1.22-6.66c-0.15-12.18-2.52-24.03-4.96-35.89c-1.68-8.2-2.68-16.49-2.88-24.87
		c-0.09-3.76-0.61-7.48-1.81-11.06c-2.65-7.97-8.83-8.72-15.21-6.02c-2.69,1.14-3.7,3.72-4.27,6.38c-0.78,3.63-0.53,7.3-0.21,10.97
		c0.78,8.87,2.34,17.66,2.61,26.57c0.06,1.79,0.08,3.6-0.02,5.39c-0.52,9.15,1.36,18.03,3.07,26.92c1.26,6.53,2.44,13.07,1.65,19.76
		c-0.24,1.98-0.19,4.72-2.29,5.22c-2.13,0.51-2.9-2.2-3.87-3.77c-1.78-2.85-3.24-5.92-4.11-9.15c-1.6-5.94-4.26-11.38-7.13-16.76
		c-3.51-6.58-5.43-13.78-7.77-20.8c-0.81-2.44-1.43-4.94-2.2-7.4c-0.78-2.49-1.93-4.76-3.85-6.61c-4.19-4.03-10.25-3.1-12.97,2.05
		c-2.08,3.94-1.88,8.15-1.18,12.36c1.11,6.71,3.25,13.17,4.96,19.74c2.34,8.99,4.45,18.05,8.26,26.57c2.59,5.8,5,11.7,5.59,18.03
		c0.59,6.4,1.31,12.79,3.17,18.9c3.34,10.93,3.39,22.29,5.11,33.43c2.17,14.09,6.11,27.58,14.23,39.54
		c2.46,3.63,5.3,6.96,8.41,10.03c2.11,2.08,3.01,4.47,3.13,7.3c0.38,8.69-0.02,17.32-1.75,25.86c-0.11,0.56-0.33,1.13,0.31,1.42
		C838.48,1213.82,838.92,1213.46,839.24,1212.96z"/>
	<path class="st2" d="M875.96,1151.49c0.73-0.77,0.63-1.57,0.6-2.35c-0.4-8.94,0.5-17.8,2.55-26.47
		c2.43-10.25,5.64-20.27,12.05-28.89c3.39-4.57,7.78-7.96,12.57-10.99c3.65-2.31,7.64-3.71,11.73-5.34
		c-6.12-1.44-30.56,7.6-38.35,14.27c3.3-1.12,6.09-3.27,9.22-4.73c3.31-1.54,6.59-3.2,9.99-4.51c3.29-1.26,6.65-2.47,10.27-2.69
		c-2.15,1.81-4.68,2.97-6.93,4.59c-7.99,5.78-13.12,13.58-16.61,22.64c-4.12,10.71-6.55,21.76-7.17,33.23
		C875.69,1143.97,875.24,1147.67,875.96,1151.49z"/>
	<path class="st2" d="M964.7,1084.71c-5.53-2.27-11.69-3.21-16.25-7.58C949.97,1080.35,959.02,1084.58,964.7,1084.71z"/>
	<path class="st2" d="M913.36,1055.46c-4.11-3.88-9.29-5.12-14.79-5.54C903.66,1051.3,908.94,1052.22,913.36,1055.46z"/>
	<path class="st2" d="M878.77,1047.76c-4.34-1.54-8.64-1.66-12.81,0.63c2.13-0.34,4.24-0.85,6.41-1.03
		C874.54,1047.17,876.61,1047.97,878.77,1047.76z"/>
	<path class="st2" d="M795.23,1030.35c3.09-2.83,6.74-4.31,11.23-4.8C802.95,1024.56,797.24,1027,795.23,1030.35z"/>
	<path class="st2" d="M869.67,977.25c3.92,0.27,7.85-1.09,11.77,0.13C879.53,975.8,873.61,975.8,869.67,977.25z"/>
	<path class="st2" d="M815.26,1045.23c-2.35-0.02-4.52,0.75-6.56,2.08c2.22-0.5,4.45-1,6.67-1.5
		C815.33,1045.62,815.29,1045.42,815.26,1045.23z"/>
	<path class="st2" d="M923.38,1020.19c-1.21-1.35-2.52-2.59-5.19-2.65C920.18,1018.8,921.93,1019.21,923.38,1020.19z"/>
</g>
</svg>
